<?xml version="1.0" encoding="utf-8"?>
<!-- Generator: Adobe Illustrator 19.0.0, SVG Export Plug-In . SVG Version: 6.00 Build 0)  -->
<svg version="1.1" id="Layer_1" xmlns="http://www.w3.org/2000/svg" xmlns:xlink="http://www.w3.org/1999/xlink" x="0px" y="0px"
	 viewBox="-5 97 600 600" style="enable-background:new -5 97 600 600;" xml:space="preserve">
<style type="text/css">
	.st0{fill:#FF7743;}
	.st1{fill:#69A546;}
	.st2{fill:url(#SVGID_1_);}
	.st3{fill:none;}
	.st4{fill:#FFFFFF;}
	.st5{fill:none;stroke:#754F48;stroke-width:20;stroke-linecap:round;stroke-miterlimit:10;}
	.st6{fill:#FFFFFF;stroke:#754F48;stroke-width:13;stroke-linecap:round;stroke-miterlimit:10;}
	.st7{fill:#754F48;}
</style>
<circle class="st0" cx="429.3" cy="292.3" r="144.1"/>
<circle class="st0" cx="194.5" cy="399.2" r="180.5"/>
<path class="st1" d="M325.1,659c0,0,22.8-2.2,24.2,5.7c1.4,7.8-5,13,8.5,14.3s13.9-19.3,24.7-16.5c10.8,2.8,23.7,15.6,36.8,6.4
	c13.1-9.2,9.5-19.2,21.3-14.9s40.8,17.1,42.6,5s-25.9-27.1-18.8-34.2c7.1-7.1,14.8-17.1,30.5-15.6c15.7,1.4,19.4-3.4,24.3-15.5
	c4.9-12.2,0.8-6.8-2.9-21.6c-3.7-14.8,3.6-16.1,10-21.8c6.4-5.7,4.1-25.7,0-36.3c-4.1-10.5,18.5-15.6,29.2-15.6s17.6,0.4,16.2-11.5
	c-1.3-12-5.5-20.6,0.2-26.9s8.5-17.7,9.2-27.7s-7.8-26.9-16.4-30.9c-8.5-4,12.9-42.2,16.4-51.9s3.6-16.1,0-26.7
	c-3.6-10.7,2.5-35.6,2.7-39.1c0.1-3.6,0.1-3.6,0.1-3.6s-29.2-2.6-31.3-16.2c-2.1-13.6,1.3-10.9-18.2-12.3c-19.5-1.4-13-27-15.2-36.9
	c-2.2-9.9-9.7-18.7-19.8-16.1c-10,2.4-263.1-51.6-280.2-59.5c-17.1-7.9-38.4-24.9-49.1-16.4c-10.7,8.5-10,26.3-20.6,29.2
	c-10.6,2.9-62.5,15.8-65.4,37.4s-6.4,21.5-16.4,25.1c-10,3.6-19.2,25.3-17.1,28.3c2.1,3,19.9,13.7,19.2,31.5
	c-0.7,17.8-48.4,117-46.2,131c2.1,14,2.8,51.4-12.1,48.7s15.6,29.2,12.8,36.7s6.4,27.3,19.2,32.4c12.8,5,41.2-19.6,44.8-5.5
	c3.6,14.1-19.9,46.2-7.8,53.3s22.8,25.9,24.9,27.5c2.1,1.6,35.6-10.3,50.5-4.7c14.9,5.6,7.1,33.3,19.9,46.1
	c12.8,12.8,26.3-8.5,38.4-10S325.1,659,325.1,659z"/>
<circle class="st0" cx="246.9" cy="571.7" r="107.2"/>
<radialGradient id="SVGID_1_" cx="301.4" cy="407.5" r="270.4" gradientTransform="matrix(1 0 0 -1 0 796)" gradientUnits="userSpaceOnUse">
	<stop  offset="0" style="stop-color:#FFF0A6"/>
	<stop  offset="0.4314" style="stop-color:#FEEFA4"/>
	<stop  offset="0.6255" style="stop-color:#FAEB9D"/>
	<stop  offset="0.7721" style="stop-color:#F4E390"/>
	<stop  offset="0.894" style="stop-color:#EBD97E"/>
	<stop  offset="1" style="stop-color:#E0CC67"/>
</radialGradient>
<circle class="st2" cx="301.4" cy="388.5" r="270.4"/>
<g>
	<g>
		<g>
			
				<rect x="121.1" y="296.2" transform="matrix(-6.649803e-002 0.9978 -0.9978 -6.649803e-002 440.4231 199.3564)" class="st3" width="11.7" height="19"/>
			<path class="st4" d="M129.8,311.7c-3.2-0.2-12.5-3.5-12.3-6.7s9.8-5.2,13.1-5c3.2,0.2,6.1,3,5.9,6.3
				C136.3,309.5,133,311.9,129.8,311.7z"/>
		</g>
	</g>
</g>
<g>
	<g>
		<g>
			
				<rect x="157.8" y="397.6" transform="matrix(0.3593 -0.9332 0.9332 0.3593 -275.0413 413.5771)" class="st3" width="11.7" height="19"/>
			<path class="st4" d="M162.8,400.5c3,1.2,10.9,7,9.8,10c-1.2,3-10.9,2.1-14,0.9s-5-4.7-3.8-7.7
				C155.9,400.7,159.8,399.3,162.8,400.5z"/>
		</g>
	</g>
</g>
<g>
	<g>
		<g>
			
				<rect x="376.8" y="425.7" transform="matrix(0.2927 -0.9562 0.9562 0.2927 -145.5104 673.7224)" class="st3" width="11.7" height="19"/>
			<path class="st4" d="M381.2,428.7c3.1,0.9,11.4,6.2,10.4,9.3c-0.9,3.1-10.8,2.8-13.9,1.9s-5.3-4.4-4.3-7.5
				S378.2,427.8,381.2,428.7z"/>
		</g>
	</g>
</g>
<g>
	<g>
		<g>
			
				<rect x="329.3" y="253.6" transform="matrix(0.1823 0.9832 -0.9832 0.1823 532.7549 -114.4453)" class="st3" width="11.7" height="19"/>
			<path class="st4" d="M339.4,268.2c-3.2,0.6-13-0.3-13.6-3.4c-0.6-3.1,8.2-7.5,11.4-8.1c3.2-0.6,6.7,1.4,7.3,4.6
				S342.6,267.6,339.4,268.2z"/>
		</g>
		<g>
			
				<rect x="250.8" y="306.6" transform="matrix(0.1489 0.9889 -0.9889 0.1489 530.9839 15.2165)" class="st3" width="11.7" height="19"/>
			<path class="st4" d="M260.7,321.4c-3.2,0.5-13-0.7-13.4-3.9c-0.5-3.2,8.5-7.2,11.7-7.7s6.6,1.7,7.1,4.9
				C266.6,317.8,263.9,320.9,260.7,321.4z"/>
		</g>
	</g>
</g>
<g>
	<g>
		<g>
			
				<rect x="388.6" y="424.8" transform="matrix(0.638 0.7701 -0.7701 0.638 477.2108 -146.5503)" class="st3" width="11.7" height="19"/>
			<path class="st4" d="M400.7,436.8c-2.5,2.1-11.5,6.1-13.5,3.6s3.6-10.6,6-12.6s6.5-2,8.6,0.5S403.1,434.7,400.7,436.8z"/>
		</g>
		<g>
			
				<rect x="382.8" y="422.2" transform="matrix(0.9507 -0.31 0.31 0.9507 -114.6809 141.751)" class="st3" width="11.7" height="19"/>
			<path class="st4" d="M393.2,426.8c1,3.1,1.4,12.9-1.6,13.9c-3.1,1-8.5-7.2-9.5-10.3c-1-3.1,0.5-6.8,3.6-7.8
				C388.7,421.7,392.2,423.8,393.2,426.8z"/>
		</g>
		<g>
			
				<rect x="417.4" y="472.1" transform="matrix(7.105771e-002 -0.9975 0.9975 7.105771e-002 -87.149 869.5569)" class="st3" width="11.7" height="19"/>
			<path class="st4" d="M420.5,475.5c3.2,0.2,12.5,3.5,12.3,6.7s-9.9,5.2-13.1,4.9c-3.2-0.2-6.1-3.1-5.9-6.3
				C414,477.6,417.2,475.2,420.5,475.5z"/>
		</g>
		<g>
			
				<rect x="365.7" y="488.4" transform="matrix(-0.9601 -0.2795 0.2795 -0.9601 589.118 1079.7474)" class="st3" width="11.7" height="19"/>
			<path class="st4" d="M365.1,499.4c0.9-3.1,6.1-11.5,9.2-10.6s3,10.7,2.1,13.8c-0.9,3.1-4.3,5.3-7.4,4.4S364.2,502.5,365.1,499.4z
				"/>
		</g>
		<g>
			
				<rect x="340.7" y="585.2" transform="matrix(0.1327 -0.9912 0.9912 0.1327 -288.8858 859.2365)" class="st3" width="11.7" height="19"/>
			<path class="st4" d="M344.2,588.4c3.2,0.4,12.3,4.3,11.8,7.5c-0.5,3.2-10.2,4.6-13.4,4.1c-3.2-0.4-5.9-3.4-5.5-6.6
				C337.6,590.2,341,588,344.2,588.4z"/>
		</g>
		<g>
			
				<rect x="280.3" y="483.3" transform="matrix(0.1473 0.9891 -0.9891 0.1473 731.4273 137.2028)" class="st3" width="11.7" height="19"/>
			<path class="st4" d="M290.1,498.1c-3.2,0.5-13-0.7-13.4-3.9c-0.5-3.2,8.5-7.2,11.7-7.7s6.6,1.7,7.1,4.9S293.3,497.6,290.1,498.1z
				"/>
		</g>
	</g>
</g>
<g>
	<g>
		<g>
			
				<rect x="246.1" y="223.4" transform="matrix(0.7866 0.6174 -0.6174 0.7866 197.5356 -105.8885)" class="st3" width="11.7" height="19"/>
			<path class="st4" d="M258.5,234c-2,2.5-9.9,8.4-12.5,6.4c-2.5-2,1.2-11.1,3.2-13.6c2-2.5,6-3.3,8.5-1.4S260.5,231.4,258.5,234z"
				/>
		</g>
		<g>
			
				<rect x="375.5" y="217.9" transform="matrix(0.7925 -0.6098 0.6098 0.7925 -59.541 279.7248)" class="st3" width="11.7" height="19"/>
			<path class="st4" d="M384,221.2c2,2.6,5.7,11.7,3.1,13.6s-10.4-3.9-12.4-6.5s-1.8-6.6,0.8-8.6C378.1,217.8,382,218.7,384,221.2z"
				/>
		</g>
		<g>
			
				<rect x="311.6" y="313.2" transform="matrix(-0.3504 0.9366 -0.9366 -0.3504 730.8857 138.4068)" class="st3" width="11.7" height="19"/>
			<path class="st4" d="M318.4,329.3c-3-1.1-11-6.9-9.9-9.9s10.9-2.2,14-1c3.1,1.2,5,4.7,3.9,7.7S321.4,330.4,318.4,329.3z"/>
		</g>
		<g>
			
				<rect x="378.6" y="269" transform="matrix(-0.9983 -5.770035e-002 5.770035e-002 -0.9983 752.1703 578.6997)" class="st3" width="11.7" height="19"/>
			<path class="st4" d="M378.5,281.4c0.2-3.2,3.4-12.5,6.6-12.4c3.2,0.2,5.3,9.8,5.1,13c-0.2,3.2-3,6.2-6.2,6
				C380.7,287.9,378.3,284.6,378.5,281.4z"/>
		</g>
		<g>
			
				<rect x="398.6" y="268.6" transform="matrix(-1 -2.617676e-003 2.617676e-003 -1 808.1735 557.2588)" class="st3" width="11.7" height="19"/>
			<path class="st4" d="M398.6,281.3c0-3.2,2.7-12.7,5.9-12.7c3.2,0,5.8,9.5,5.8,12.7c0,3.2-2.6,6.3-5.9,6.3
				C401.2,287.6,398.6,284.5,398.6,281.3z"/>
		</g>
	</g>
</g>
<g>
	<g>
		<g>
			
				<rect x="190.3" y="436.2" transform="matrix(-0.8927 -0.4506 0.4506 -0.8927 170.4585 931.9776)" class="st3" width="11.7" height="19"/>
			<path class="st4" d="M189.5,446c1.5-2.9,8.1-10.2,11-8.7s1,11.1-0.5,14s-5.2,4.5-8.1,3C189,452.8,188,448.8,189.5,446z"/>
		</g>
		<g>
			
				<rect x="245.6" y="455.9" transform="matrix(0.3585 -0.9335 0.9335 0.3585 -273.1769 533.3102)" class="st3" width="11.7" height="19"/>
			<path class="st4" d="M250.5,458.8c3,1.2,10.9,7,9.8,10s-10.9,2.1-14,0.9s-5-4.7-3.8-7.7C243.7,459,247.5,457.7,250.5,458.8z"/>
		</g>
	</g>
</g>
<g>
	<g>
		<g>
			
				<rect x="187.8" y="488.9" transform="matrix(-0.9967 -8.153619e-002 8.153619e-002 -0.9967 346.0337 1010.9451)" class="st3" width="11.7" height="19"/>
			<path class="st4" d="M187.6,501.1c0.3-3.2,3.7-12.5,6.9-12.2s5.1,9.9,4.8,13.1s-3.1,6.1-6.4,5.8
				C189.7,507.6,187.3,504.4,187.6,501.1z"/>
		</g>
		<g>
			
				<rect x="205.1" y="498.4" transform="matrix(0.6196 -0.7849 0.7849 0.6196 -318.4058 358.8011)" class="st3" width="11.7" height="19"/>
			<path class="st4" d="M212.1,501.4c2.5,2,8.4,9.9,6.3,12.5c-2,2.5-11.1-1.3-13.6-3.3c-2.5-2-3.3-6-1.3-8.5
				C205.5,499.5,209.6,499.4,212.1,501.4z"/>
		</g>
		<g>
			
				<rect x="227.2" y="534.1" transform="matrix(0.271 0.9626 -0.9626 0.271 693.1424 171.8909)" class="st3" width="11.7" height="19"/>
			<path class="st4" d="M237.8,548.3c-3.1,0.9-12.9,0.9-13.8-2.2c-0.9-3.1,7.5-8.2,10.6-9.1c3.1-0.9,6.8,0.8,7.7,3.9
				C243.2,544.1,240.9,547.5,237.8,548.3z"/>
		</g>
		<g>
			
				<rect x="201.9" y="581.7" transform="matrix(0.213 -0.977 0.977 0.213 -414.2066 668.2548)" class="st3" width="11.7" height="19"/>
			<path class="st4" d="M205.8,584.8c3.2,0.7,11.9,5.3,11.2,8.4c-0.7,3.1-10.5,3.7-13.7,3c-3.2-0.7-5.6-3.9-4.9-7.1
				S202.6,584.1,205.8,584.8z"/>
		</g>
	</g>
</g>
<g>
	<g>
		<g>
			
				<rect x="441" y="309" transform="matrix(-0.703 0.7112 -0.7112 -0.703 987.4831 224.5872)" class="st3" width="11.7" height="19"/>
			<path class="st4" d="M445,324.9c-2.3-2.3-7.2-10.8-4.9-13.1s10.9,2.5,13.2,4.8c2.3,2.3,2.6,6.3,0.4,8.6
				C451.5,327.5,447.3,327.2,445,324.9z"/>
		</g>
		<g>
			
				<rect x="492.2" y="362.3" transform="matrix(0.1115 0.9938 -0.9938 0.1115 812.0236 -164.5842)" class="st3" width="11.7" height="19"/>
			<path class="st4" d="M501.9,377.3c-3.2,0.4-12.9-1.2-13.3-4.4c-0.4-3.2,8.8-6.9,12-7.2c3.2-0.4,6.6,1.9,6.9,5.1
				C507.9,374,505.1,376.9,501.9,377.3z"/>
		</g>
		<g>
			
				<rect x="457.6" y="391" transform="matrix(-0.5169 -0.8561 0.8561 -0.5169 360.1741 1004.2939)" class="st3" width="11.7" height="19"/>
			<path class="st4" d="M457.7,397.2c2.8-1.7,12.2-4.3,13.9-1.6c1.7,2.8-5.1,9.9-7.9,11.6s-6.8,1-8.4-1.8
				C453.7,402.7,454.9,398.8,457.7,397.2z"/>
		</g>
		<g>
			
				<rect x="412.5" y="396.9" transform="matrix(-8.484382e-002 0.9964 -0.9964 -8.484382e-002 858.8115 23.9765)" class="st3" width="11.7" height="19"/>
			<path class="st4" d="M421.1,412.5c-3.2-0.3-12.4-3.7-12.2-6.9s9.9-5,13.2-4.8c3.2,0.3,6.1,3.2,5.8,6.4
				C427.6,410.5,424.3,412.8,421.1,412.5z"/>
		</g>
	</g>
</g>
<g>
	<g>
		<g>
			
				<rect x="497.4" y="541.5" transform="matrix(0.9816 0.1912 -0.1912 0.9816 114.63 -86.0507)" class="st3" width="11.7" height="19"/>
			<path class="st4" d="M509.6,549c-0.6,3.2-5,12-8.2,11.4c-3.2-0.6-3.9-10.4-3.3-13.6s3.8-5.7,7-5.1
				C508.3,542.3,510.2,545.8,509.6,549z"/>
		</g>
		<g>
			
				<rect x="444.8" y="473.2" transform="matrix(0.9166 0.3998 -0.3998 0.9166 230.5656 -139.9283)" class="st3" width="11.7" height="19"/>
			<path class="st4" d="M457.4,482.1c-1.3,3-7.5,10.6-10.5,9.3s-1.6-11-0.3-14c1.3-3,4.9-4.7,7.9-3.4
				C457.5,475.3,458.7,479.1,457.4,482.1z"/>
		</g>
	</g>
</g>
<g>
	<g>
		<g>
			
				<rect x="247.9" y="385.7" transform="matrix(-0.9592 -0.2826 0.2826 -0.9592 385.4266 845.9816)" class="st3" width="11.7" height="19"/>
			<path class="st4" d="M247.2,396.6c0.9-3.1,6.1-11.5,9.2-10.5c3.1,0.9,2.9,10.7,2,13.9c-0.9,3.1-4.3,5.3-7.4,4.4
				C248,403.4,246.3,399.7,247.2,396.6z"/>
		</g>
		<g>
			
				<rect x="270" y="387.4" transform="matrix(0.3448 -0.9387 0.9387 0.3448 -191.8857 518.987)" class="st3" width="11.7" height="19"/>
			<path class="st4" d="M274.8,390.3c3,1.1,11,6.8,9.9,9.9c-1.1,3-10.9,2.2-14,1.1c-3-1.1-5-4.6-3.9-7.7
				C268,390.6,271.8,389.2,274.8,390.3z"/>
		</g>
		<g>
			
				<rect x="277.7" y="427.9" transform="matrix(-0.9984 -5.607725e-002 5.607725e-002 -0.9984 542.1111 889.9902)" class="st3" width="11.7" height="19"/>
			<path class="st4" d="M277.6,440.3c0.2-3.2,3.3-12.5,6.6-12.4c3.2,0.2,5.3,9.8,5.1,13s-3,6.2-6.2,6S277.4,443.5,277.6,440.3z"/>
		</g>
	</g>
</g>
<g>
	<g>
		<g>
			
				<rect x="244.4" y="169" transform="matrix(-0.908 0.419 -0.419 -0.908 552.2808 235.7895)" class="st3" width="11.7" height="19"/>
			<path class="st4" d="M246.3,183.9c-1.4-2.9-2.9-12.6,0-14c2.9-1.4,9.3,6.1,10.7,9.1c1.4,2.9,0.3,6.8-2.7,8.2
				C251.3,188.5,247.7,186.8,246.3,183.9z"/>
		</g>
		<g>
			
				<rect x="184.4" y="232.9" transform="matrix(0.7479 0.6638 -0.6638 0.7479 208.8971 -65.1772)" class="st3" width="11.7" height="19"/>
			<path class="st4" d="M196.7,243.9c-2.1,2.4-10.4,7.8-12.8,5.6c-2.4-2.1,1.9-11,4.1-13.4c2.1-2.4,6.2-3,8.6-0.8
				S198.9,241.5,196.7,243.9z"/>
		</g>
	</g>
</g>
<g>
	<g>
		<g>
			
				<rect x="409.8" y="306" transform="matrix(-0.8803 -0.4745 0.4745 -0.8803 631.8748 790.4307)" class="st3" width="11.7" height="19"/>
			<path class="st4" d="M409,315.5c1.5-2.8,8.3-9.9,11.2-8.4s0.7,11.1-0.9,14c-1.5,2.8-5.3,4.3-8.2,2.8S407.5,318.4,409,315.5z"/>
		</g>
		<g>
			
				<rect x="438.9" y="396.2" transform="matrix(0.5695 -0.822 0.822 0.5695 -142.0322 540.2581)" class="st3" width="11.7" height="19"/>
			<path class="st4" d="M445.5,399.1c2.7,1.8,9,9.4,7.1,12.1s-11.1-0.6-13.8-2.4c-2.7-1.8-3.7-5.8-1.9-8.4
				C438.8,397.7,442.8,397.3,445.5,399.1z"/>
		</g>
	</g>
</g>
<g>
	<g>
		<g>
			
				<rect x="346.4" y="430.6" transform="matrix(0.9648 0.263 -0.263 0.9648 128.1336 -77.1433)" class="st3" width="11.7" height="19"/>
			<path class="st4" d="M358.7,438.5c-0.9,3.1-5.9,11.6-9,10.7s-3.2-10.7-2.3-13.8c0.9-3.1,4.2-5.4,7.3-4.6S359.5,435.4,358.7,438.5
				z"/>
		</g>
		<g>
			
				<rect x="334.3" y="313" transform="matrix(-0.9691 -0.2466 0.2466 -0.9691 590.2593 718.9152)" class="st3" width="11.7" height="19"/>
			<path class="st4" d="M333.7,324.2c0.8-3.1,5.7-11.7,8.8-10.9c3.1,0.8,3.3,10.6,2.5,13.8s-4.1,5.5-7.2,4.7
				C334.7,331,332.9,327.3,333.7,324.2z"/>
		</g>
		<g>
			
				<rect x="249.7" y="357.7" transform="matrix(-0.1529 0.9882 -0.9882 -0.1529 657.4327 170.7925)" class="st3" width="11.7" height="19"/>
			<path class="st4" d="M257.8,373.5c-3.2-0.5-12.2-4.5-11.7-7.7s10.3-4.3,13.5-3.8c3.2,0.5,5.8,3.6,5.3,6.8
				C264.4,371.8,261,374,257.8,373.5z"/>
		</g>
		<g>
			
				<rect x="235.7" y="274.9" transform="matrix(0.1434 0.9897 -0.9897 0.1434 488.438 4.567)" class="st3" width="11.7" height="19"/>
			<path class="st4" d="M245.6,289.8c-3.2,0.5-13-0.8-13.4-4c-0.4-3.2,8.5-7.2,11.7-7.6c3.2-0.4,6.6,1.7,7.1,4.9
				C251.5,286.3,248.8,289.3,245.6,289.8z"/>
		</g>
		<g>
			
				<rect x="201.1" y="279.6" transform="matrix(-0.292 0.9564 -0.9564 -0.292 543.9019 175.5729)" class="st3" width="11.7" height="19"/>
			<path class="st4" d="M208.3,295.6c-3.1-0.9-11.4-6.2-10.4-9.3c1-3.1,10.8-2.8,13.9-1.9c3.1,0.9,5.3,4.4,4.3,7.5
				C215.1,295,211.4,296.6,208.3,295.6z"/>
		</g>
	</g>
</g>
<g>
	<g>
		<g>
			<rect x="294" y="369.8" transform="matrix(0.2235 0.9747 -0.9747 0.2235 602.49 2.2849)" class="st3" width="11.7" height="19"/>
			<path class="st4" d="M304.3,384.3c-3.2,0.7-13,0.3-13.7-2.9c-0.7-3.2,7.9-7.8,11.1-8.6c3.2-0.7,6.7,1.1,7.5,4.3
				C309.8,380.3,307.4,383.6,304.3,384.3z"/>
		</g>
		<g>
			
				<rect x="369.6" y="425.3" transform="matrix(0.9328 -0.3604 0.3604 0.9328 -131.4797 164.5341)" class="st3" width="11.7" height="19"/>
			<path class="st4" d="M379.8,429.8c1.2,3,2.1,12.8-0.9,14s-8.9-6.7-10-9.7c-1.2-3,0.2-6.8,3.2-8
				C375,424.8,378.6,426.8,379.8,429.8z"/>
		</g>
		<g>
			
				<rect x="416.5" y="352.7" transform="matrix(0.8445 -0.5356 0.5356 0.8445 -128.3151 282.5559)" class="st3" width="11.7" height="19"/>
			<path class="st4" d="M425.6,356.4c1.7,2.7,4.6,12.1,1.9,13.9c-2.7,1.7-10-4.9-11.8-7.6s-1.2-6.7,1.6-8.5
				C420,352.5,423.9,353.7,425.6,356.4z"/>
		</g>
	</g>
</g>
<g>
	<g>
		<g>
			
				<rect x="366.5" y="411.6" transform="matrix(-0.7381 0.6747 -0.6747 -0.7381 931.377 480.7227)" class="st3" width="11.7" height="19"/>
			<path class="st4" d="M370.2,427.4c-2.2-2.4-6.6-11.2-4.3-13.3s10.7,3,12.9,5.4c2.2,2.4,2.3,6.4-0.1,8.6S372.4,429.8,370.2,427.4z
				"/>
		</g>
		<g>
			
				<rect x="352.6" y="452.8" transform="matrix(0.5909 -0.8068 0.8068 0.5909 -226.3537 478.3368)" class="st3" width="11.7" height="19"/>
			<path class="st4" d="M359.4,455.8c2.6,1.9,8.7,9.6,6.8,12.2c-1.9,2.6-11.1-0.9-13.7-2.8s-3.5-5.9-1.6-8.5
				C352.7,454.1,356.7,453.8,359.4,455.8z"/>
		</g>
		<g>
			
				<rect x="245.3" y="462" transform="matrix(-0.5176 0.8556 -0.8556 -0.5176 784.5357 500.6213)" class="st3" width="11.7" height="19"/>
			<path class="st4" d="M250.9,478.1c-2.8-1.7-9.5-8.8-7.8-11.6c1.7-2.8,11.1-0.1,13.9,1.6s4,5.5,2.4,8.3
				C257.7,479.1,253.7,479.8,250.9,478.1z"/>
		</g>
		<g>
			
				<rect x="341.8" y="533.8" transform="matrix(-0.835 -0.5503 0.5503 -0.835 339.0214 1188.2371)" class="st3" width="11.7" height="19"/>
			<path class="st4" d="M341.1,542.8c1.8-2.7,9.2-9.2,11.9-7.4c2.7,1.8-0.3,11.1-2.1,13.8c-1.8,2.7-5.7,3.8-8.4,2
				C339.8,549.5,339.3,545.5,341.1,542.8z"/>
		</g>
	</g>
</g>
<g>
	<g>
		<g>
			
				<rect x="72.5" y="394.7" transform="matrix(-0.5276 0.8495 -0.8495 -0.5276 463.0117 550.8451)" class="st3" width="11.7" height="19"/>
			<path class="st4" d="M77.9,410.9c-2.7-1.7-9.4-8.9-7.7-11.7c1.7-2.7,11.1,0,13.9,1.7c2.7,1.7,4,5.6,2.3,8.3
				C84.7,412,80.7,412.6,77.9,410.9z"/>
		</g>
		<g>
			
				<rect x="85.3" y="310.9" transform="matrix(0.7815 -0.624 0.624 0.7815 -179.9781 126.9099)" class="st3" width="11.7" height="19"/>
			<path class="st4" d="M93.7,314.2c2,2.5,5.9,11.6,3.4,13.6s-10.5-3.7-12.5-6.3s-1.9-6.6,0.6-8.6S91.7,311.7,93.7,314.2z"/>
		</g>
		<g>
			
				<rect x="156.4" y="325.1" transform="matrix(0.1706 -0.9853 0.9853 0.1706 -195.1028 437.4417)" class="st3" width="11.7" height="19"/>
			<path class="st4" d="M160.1,328.3c3.2,0.6,12.1,4.8,11.5,7.9c-0.6,3.2-10.3,4.2-13.5,3.6c-3.2-0.6-5.8-3.7-5.2-6.9
				C153.4,329.8,156.9,327.8,160.1,328.3z"/>
		</g>
	</g>
</g>
<g>
	<g>
		<g>
			
				<rect x="134.9" y="496" transform="matrix(-0.8951 -0.4458 0.4458 -0.8951 41.3934 1020.6627)" class="st3" width="11.7" height="19"/>
			<path class="st4" d="M134.1,505.7c1.4-2.9,8-10.2,10.9-8.8c2.9,1.4,1,11.1-0.4,14c-1.4,2.9-5.2,4.5-8.1,3
				C133.7,512.6,132.7,508.6,134.1,505.7z"/>
		</g>
		<g>
			
				<rect x="119.7" y="527.3" transform="matrix(0.4296 0.903 -0.903 0.4296 556.3551 192.8031)" class="st3" width="11.7" height="19"/>
			<path class="st4" d="M131,540.7c-2.9,1.4-12.6,3.1-14,0.2s6-9.4,9-10.8c2.9-1.4,6.8-0.3,8.2,2.6
				C135.6,535.6,133.9,539.3,131,540.7z"/>
		</g>
	</g>
</g>
<g>
	<g>
		<g>
			
				<rect x="414.5" y="188.1" transform="matrix(-0.8715 0.4905 -0.4905 -0.8715 883.5909 163.6525)" class="st3" width="11.7" height="19"/>
			<path class="st4" d="M416.9,203.3c-1.6-2.8-3.9-12.4-1.1-14s9.8,5.4,11.3,8.2c1.6,2.8,0.8,6.8-2,8.4
				C422.3,207.5,418.4,206.1,416.9,203.3z"/>
		</g>
		<g>
			
				<rect x="333.7" y="121.1" transform="matrix(-0.5523 0.8336 -0.8336 -0.5523 635.9743 -80.2833)" class="st3" width="11.7" height="19"/>
			<path class="st4" d="M339,137.3c-2.7-1.8-9.1-9.2-7.4-11.9c1.8-2.7,11.1,0.3,13.8,2.1c2.7,1.8,3.8,5.7,2,8.4
				C345.6,138.6,341.7,139,339,137.3z"/>
		</g>
	</g>
</g>
<g>
	<g>
		<g>
			
				<rect x="513.7" y="399.8" transform="matrix(-0.3178 0.9482 -0.9482 -0.3178 1072.8041 46.7732)" class="st3" width="11.7" height="19"/>
			<path class="st4" d="M520.8,415.9c-3.1-1-11.2-6.5-10.2-9.6s10.8-2.5,13.9-1.5s5.2,4.5,4.1,7.6
				C527.6,415.4,523.8,416.9,520.8,415.9z"/>
		</g>
		<g>
			
				<rect x="500.6" y="331.3" transform="matrix(0.5139 0.8578 -0.8578 0.5139 538.5121 -268.7472)" class="st3" width="11.7" height="19"/>
			<path class="st4" d="M512.1,344.2c-2.8,1.7-12.3,4.3-13.9,1.5c-1.7-2.8,5.1-9.9,7.9-11.6c2.8-1.7,6.8-1,8.4,1.8
				C516.2,338.7,514.9,342.5,512.1,344.2z"/>
		</g>
		<g>
			
				<rect x="522" y="273.2" transform="matrix(-0.5745 -0.8185 0.8185 -0.5745 599.7091 877.1194)" class="st3" width="11.7" height="19"/>
			<path class="st4" d="M521.9,279.7c2.6-1.9,11.9-5.2,13.8-2.5c1.9,2.6-4.4,10.2-7,12.1c-2.6,1.9-6.7,1.5-8.5-1.2
				C518.2,285.5,519.2,281.6,521.9,279.7z"/>
		</g>
	</g>
</g>
<g>
	<g>
		<g>
			
				<rect x="370.5" y="497.7" transform="matrix(-0.4482 -0.8939 0.8939 -0.4482 91.7107 1070.9346)" class="st3" width="11.7" height="19"/>
			<path class="st4" d="M370.9,503.4c2.9-1.5,12.5-3.4,14-0.5s-5.8,9.5-8.7,10.9c-2.9,1.5-6.8,0.5-8.3-2.4
				C366.4,508.6,368,504.9,370.9,503.4z"/>
		</g>
		<g>
			
				<rect x="453.1" y="534.7" transform="matrix(-0.2766 -0.961 0.961 -0.2766 62.9207 1135.8641)" class="st3" width="11.7" height="19"/>
			<path class="st4" d="M454.2,539.5c3.1-0.9,12.9-1,13.8,2.1c0.9,3.1-7.5,8.3-10.6,9.1c-3.1,0.9-6.8-0.8-7.7-3.9
				C448.9,543.8,451.1,540.4,454.2,539.5z"/>
		</g>
		<g>
			
				<rect x="492.1" y="472.7" transform="matrix(0.9194 0.3933 -0.3933 0.9194 229.7647 -156.9944)" class="st3" width="11.7" height="19"/>
			<path class="st4" d="M504.6,481.4c-1.3,3-7.4,10.7-10.4,9.4c-3-1.3-1.7-11-0.4-14c1.3-3,4.9-4.8,7.9-3.5
				C504.7,474.6,505.9,478.5,504.6,481.4z"/>
		</g>
	</g>
</g>
<g>
	<g>
		<g>
			
				<rect x="265.6" y="507.7" transform="matrix(-8.085223e-002 0.9967 -0.9967 -8.085223e-002 808.8255 288.4783)" class="st3" width="11.7" height="19"/>
			<path class="st4" d="M274.2,523.3c-3.2-0.3-12.5-3.6-12.2-6.9c0.3-3.3,9.9-5.1,13.1-4.8c3.2,0.3,6.1,3.1,5.8,6.4
				C280.7,521.2,277.4,523.5,274.2,523.3z"/>
		</g>
		<g>
			
				<rect x="274" y="536.5" transform="matrix(0.4493 0.8934 -0.8934 0.4493 641.9312 50.6349)" class="st3" width="11.7" height="19"/>
			<path class="st4" d="M285.4,549.8c-2.9,1.5-12.5,3.4-14,0.5s5.8-9.5,8.7-10.9c2.9-1.5,6.8-0.5,8.3,2.4
				C289.8,544.6,288.3,548.3,285.4,549.8z"/>
		</g>
		<g>
			
				<rect x="336.5" y="553.7" transform="matrix(-0.9635 -0.2676 0.2676 -0.9635 521.4598 1197.4637)" class="st3" width="11.7" height="19"/>
			<path class="st4" d="M335.8,564.8c0.9-3.1,5.9-11.5,9-10.7c3.1,0.9,3.1,10.7,2.2,13.8c-0.9,3.1-4.2,5.4-7.3,4.5
				C336.7,571.5,335,567.9,335.8,564.8z"/>
		</g>
		<g>
			
				<rect x="386.2" y="625.8" transform="matrix(0.7436 0.6686 -0.6686 0.7436 525.2706 -99.2681)" class="st3" width="11.7" height="19"/>
			<path class="st4" d="M398.6,636.8c-2.2,2.4-10.5,7.7-12.9,5.5s2-11,4.1-13.4c2.2-2.4,6.2-2.9,8.6-0.8S400.8,634.4,398.6,636.8z"
				/>
		</g>
	</g>
</g>
<g>
	<g>
		<g>
			
				<rect x="311.6" y="518.1" transform="matrix(-0.568 0.823 -0.823 -0.568 932.0314 566.0525)" class="st3" width="11.7" height="19"/>
			<path class="st4" d="M316.8,534.2c-2.7-1.8-9-9.4-7.1-12s11.1,0.6,13.8,2.4c2.7,1.8,3.7,5.7,1.9,8.4S319.4,536.1,316.8,534.2z"/>
		</g>
	</g>
</g>
<path class="st5" d="M190.7,534.5c0,0,39.3-65.8,110.3-65.8s110.3,65.8,110.3,65.8"/>
<path class="st6" d="M155,290.5c3.8,28.1,27.8,49.7,57,49.7c29.1,0,53.2-21.7,57-49.7c0,0-29.1-10-66.5-10S155,290.5,155,290.5z"/>
<circle class="st7" cx="194.4" cy="315" r="24.4"/>
<path class="st6" d="M321.5,290.5c3.8,28.1,27.8,49.7,57,49.7c29.1,0,53.2-21.7,57-49.7c0,0-29.1-10-66.5-10
	S321.5,290.5,321.5,290.5z"/>
<circle class="st7" cx="360.9" cy="315" r="24.4"/>
</svg>
