<?xml version="1.0" encoding="utf-8"?>
<!-- Generator: Adobe Illustrator 19.0.0, SVG Export Plug-In . SVG Version: 6.00 Build 0)  -->
<svg version="1.1" id="Layer_1" xmlns="http://www.w3.org/2000/svg" xmlns:xlink="http://www.w3.org/1999/xlink" x="0px" y="0px"
	 viewBox="0 0 46.5 44.4" style="enable-background:new 0 0 46.5 44.4;" xml:space="preserve">
<style type="text/css">
	.st0{fill:#FFFFFF;}
</style>
<path id="XMLID_2538_" class="st0" d="M37.3,18.7h-28c-1.3,0-2.4-1.5-2.4-3.4v0c0-1.9,2.5-7.4,16.4-7.4s16.4,5.5,16.4,7.4v0
	C39.7,17.1,38.6,18.7,37.3,18.7z"/>
<path id="XMLID_2537_" class="st0" d="M37.3,26.7h-28c-1.3,0-2.4-1.1-2.4-2.4v0c0-1.3,1.1-2.4,2.4-2.4h28c1.3,0,2.4,1.1,2.4,2.4v0
	C39.7,25.6,38.6,26.7,37.3,26.7z"/>
<path id="XMLID_2536_" class="st0" d="M37.3,35.8h-28c-1.3,0-2.4-2.3-2.4-3.7v0c0-1.3,1.1-2.4,2.4-2.4h28c1.3,0,2.4,1.1,2.4,2.4v0
	C39.7,33.5,38.6,35.8,37.3,35.8z"/>
</svg>
