<?xml version="1.0" encoding="utf-8"?>
<!-- Generator: Adobe Illustrator 19.0.0, SVG Export Plug-In . SVG Version: 6.00 Build 0)  -->
<svg version="1.1" id="Layer_1" xmlns="http://www.w3.org/2000/svg" xmlns:xlink="http://www.w3.org/1999/xlink" x="0px" y="0px"
	 viewBox="0 0 169.8 169.9" style="enable-background:new 0 0 169.8 169.9;" xml:space="preserve">
<style type="text/css">
	.st0{fill:#442B20;}
	.st1{fill:#452C20;}
	.st2{fill:#FFFFFF;}
</style>
<path id="XMLID_25_" class="st0" d="M129.3-645.6c0-29.2-24.7-52.6-54.3-50.6c-24.1,1.6-43.9,20.4-46.8,44.4
	c-1.1,8.8,0.2,17.2,3.1,24.7h0l34.2,91.7c4.5,12.1,21.7,12.1,26.2,0l34.2-91.7h0C128.1-632.9,129.3-639.1,129.3-645.6z M80.8-625.3
	c-13.9,1.4-25.5-10.2-24.1-24.1c1-10.3,9.3-18.6,19.6-19.6c13.9-1.4,25.5,10.2,24.1,24.1C99.5-634.7,91.1-626.4,80.8-625.3z"/>
<ellipse id="XMLID_30_" class="st1" cx="78.6" cy="-254.4" rx="68.8" ry="70.2"/>
<path id="XMLID_88_" class="st2" d="M78-254.2L78-254.2c-3.8,0-6.9-3.1-6.9-6.9v-41.2c0-3.8,3.1-6.9,6.9-6.9h0
	c3.8,0,6.9,3.1,6.9,6.9v41.2C84.9-257.3,81.8-254.2,78-254.2z"/>
<path id="XMLID_90_" class="st2" d="M89.8-244L89.8-244c2.7-2.7,7-2.7,9.7,0l15.8,16.1c2.7,2.7,2.7,7.2,0,9.9l0,0
	c-2.7,2.7-7,2.7-9.7,0l-15.8-16.1C87.1-236.8,87.1-241.3,89.8-244z"/>
<path id="XMLID_228_" class="st0" d="M38.3,104.6C42,89,49.9,74.2,62,62S89,42,104.6,38.3l33.6-33.6C103,0.8,66.4,12.4,39.4,39.4
	S0.8,103,4.7,138.2L38.3,104.6z"/>
<path id="XMLID_89_" class="st0" d="M127.2,60.8l-22.6-22.6l33.6-33.6l22.6,22.6c4.8,4.8,4.8,12.7,0,17.5l-16.1,16.1
	C139.9,65.6,132,65.6,127.2,60.8z"/>
<path id="XMLID_293_" class="st0" d="M27.2,160.8L4.7,138.2l33.6-33.6l22.6,22.6c4.8,4.8,4.8,12.7,0,17.5l-16.1,16.1
	C39.9,165.6,32.1,165.6,27.2,160.8z"/>
</svg>
