<?xml version="1.0" encoding="utf-8"?>
<!-- Generator: Adobe Illustrator 19.0.0, SVG Export Plug-In . SVG Version: 6.00 Build 0)  -->
<svg version="1.1"
	 id="svg2251" xmlns:dc="http://purl.org/dc/elements/1.1/" xmlns:svg="http://www.w3.org/2000/svg" xmlns:rdf="http://www.w3.org/1999/02/22-rdf-syntax-ns#" xmlns:inkscape="http://www.inkscape.org/namespaces/inkscape" xmlns:cc="http://creativecommons.org/ns#" xmlns:sodipodi="http://sodipodi.sourceforge.net/DTD/sodipodi-0.dtd" sodipodi:docname="ZZ1.svg" sodipodi:version="0.32" inkscape:version="0.48.1 "
	 xmlns="http://www.w3.org/2000/svg" xmlns:xlink="http://www.w3.org/1999/xlink" x="0px" y="0px" viewBox="46 162.4 470 470"
	 style="enable-background:new 46 162.4 470 470;" xml:space="preserve">
<style type="text/css">
	.st0{fill:#11457E;}
	.st1{fill:#D7141A;}
	.st2{fill:#FFFFFF;}
</style>
<sodipodi:namedview  id="base" fit-margin-top="0" inkscape:cx="-300.09713" inkscape:cy="267.27367" borderopacity="1.0" bordercolor="#666666" showgrid="false" pagecolor="#ffffff" inkscape:zoom="0.47236609" fit-margin-left="0" inkscape:window-y="-8" inkscape:current-layer="svg2251" fit-margin-right="0" fit-margin-bottom="0" inkscape:window-maximized="1" inkscape:window-x="-8" inkscape:window-width="1280" inkscape:pageshadow="2" inkscape:window-height="1004" inkscape:pageopacity="0.0">
	</sodipodi:namedview>
<path class="st0" d="M115.6,564.4L286,396L116,230.5C73,273.1,46.3,332.2,46.3,397.6C46.3,462.8,72.8,521.8,115.6,564.4z"/>
<path class="st1" d="M515.8,396L286,396L115.8,564.2c42.5,42.2,101,68.2,165.6,68.2c123.4,0,224.5-95,234.4-215.8L515.8,396z"/>
<path class="st2" d="M516,398.6l-229.9,0L116,230.5c42.5-42.2,101-68.2,165.6-68.2c123.4,0,224.5,95,234.4,215.8L516,398.6z"/>
</svg>
