<?xml version="1.0" encoding="utf-8"?>
<!-- Generator: Adobe Illustrator 18.1.1, SVG Export Plug-In . SVG Version: 6.00 Build 0)  -->
<svg version="1.1" id="Layer_1" xmlns="http://www.w3.org/2000/svg" xmlns:xlink="http://www.w3.org/1999/xlink" x="0px" y="0px"
	 viewBox="420 0 1080 1080" enable-background="new 420 0 1080 1080" xml:space="preserve">
<g>
	<path fill="none" d="M968.3,1079.9c4.5-0.1,8.9-0.2,13.4-0.4h-13.4V1079.9z"/>
	<path fill="none" d="M938.3,1079.6c7.2,0.3,14.4,0.4,21.7,0.4c2.8,0,5.5,0,8.3-0.1v-0.4H938.3z"/>
	<path fill="#00247D" d="M1397.2,223c-61.9-85.3-148.2-151.7-248.6-189.1v313.4L1397.2,223z"/>
	<path fill="#00247D" d="M1148.6,1046.1C1250,1008.3,1337,940.9,1399,854.5l-250.4-125.2V1046.1z"/>
	<path fill="#00247D" d="M525.4,860.5c65.2,88.2,156.5,155.8,262.6,191.5V729.3L525.4,860.5z"/>
	<path fill="#00247D" d="M788,28c-105.1,35.3-195.7,102-260.7,189L788,347.3V28z"/>
	<path fill="#FFFFFF" d="M1468.5,358c-7.1-19.7-15.2-38.9-24.5-57.5L1329,358H1468.5z"/>
	<path fill="#FFFFFF" d="M1148.6,358h59.4l209.6-104.8c-6.5-10.3-13.3-20.3-20.4-30.1l-248.6,124.3V358z"/>
	<path fill="#FFFFFF" d="M1148.6,718.6v10.6L1399,854.5c17.5-24.4,33.1-50.4,46.4-77.6L1329,718.6H1148.6z"/>
	<path fill="#FFFFFF" d="M457,343.1c-1.9,4.9-3.8,9.8-5.6,14.8h35.2L457,343.1z"/>
	<path fill="#FFFFFF" d="M1466.7,727c1-2.8,2-5.6,3-8.4h-19.8L1466.7,727z"/>
	<path fill="#FFFFFF" d="M788,358v-10.6L527.2,216.9c-18,24.1-34.1,49.8-48,76.8L607.6,358H788z"/>
	<path fill="#FFFFFF" d="M450.2,718.6c7.8,22.3,17.1,44,27.6,64.9l129.7-64.9H450.2z"/>
	
		<rect x="1322.1" y="747.7" transform="matrix(-0.8944 -0.4472 0.4472 -0.8944 2293.5408 2036.8882)" fill="#FFFFFF" width="130.2" height="0"/>
	<path fill="#FFFFFF" d="M788,718.6h-59.4L504.8,830.5c6.5,10.2,13.4,20.2,20.6,30L788,729.3V718.6z"/>
	
		<rect x="470.2" y="751.1" transform="matrix(0.8944 -0.4472 0.4472 0.8944 -278.5807 322.022)" fill="#FFFFFF" width="145.1" height="0"/>
	<path fill="#CF142B" d="M1329,358l115.1-57.5c-8-16.2-16.9-32-26.5-47.2L1208,358H1329z"/>
	<path fill="#CF142B" d="M1329,718.6l116.4,58.2c7.9-16.2,15-32.8,21.3-49.8l-16.8-8.4H1329z"/>
	
		<rect x="1322.2" y="329.2" transform="matrix(-0.8944 0.4472 -0.4472 -0.8944 2773.8745 3.5314)" fill="#CF142B" width="128.7" height="0"/>
	<path fill="#CF142B" d="M607.6,718.6l-129.7,64.9c8.2,16.2,17.1,31.9,26.9,47.1l223.9-111.9H607.6z"/>
	<path fill="#CF142B" d="M607.6,358l-128.4-64.2c-8.2,16-15.6,32.5-22.3,49.4l29.6,14.8H607.6z"/>
	
		<rect x="471.7" y="325.9" transform="matrix(0.8944 0.4472 -0.4472 0.8944 203.1035 -208.6391)" fill="#CF142B" width="143.5" height="0"/>
	<path fill="#FFFFFF" d="M1488.8,430.1c-3.2-15.4-7-30.6-11.5-45.5l-91,45.5H1488.8z"/>
	<path fill="#FFFFFF" d="M788,729.3V1052c23.4,7.8,47.5,14.1,72.1,18.8V693.2L788,729.3z"/>
	<path fill="#FFFFFF" d="M430.5,646.5c3.6,18.1,8.1,35.8,13.5,53.1l106.3-53.1H430.5z"/>
	<path fill="#FFFFFF" d="M1478.2,692.4c4.4-15,8.2-30.4,11.3-45.9h-103.2L1478.2,692.4z"/>
	<path fill="#FFFFFF" d="M860.1,383.4V9.2C835.4,13.8,811.3,20.1,788,28v319.3L860.1,383.4z"/>
	<path fill="#FFFFFF" d="M1148.6,347.3V33.9c-23.3-8.7-47.4-15.8-72.1-21.3v370.8L1148.6,347.3z"/>
	<path fill="#FFFFFF" d="M1076.5,693.2v374.2c24.7-5.4,48.8-12.6,72.1-21.3V729.3L1076.5,693.2z"/>
	<path fill="#FFFFFF" d="M444.9,377.4c-5.4,17.2-10,34.8-13.7,52.7h119.1L444.9,377.4z"/>
	<polygon fill="#FFFFFF" points="1184.7,646.5 1329,718.6 1329,718.6 1184.7,646.5 	"/>
	<polygon fill="#FFFFFF" points="751.9,646.5 607.6,718.6 607.6,718.6 751.9,646.5 	"/>
	<polygon fill="#FFFFFF" points="1076.5,646.5 1076.5,693.2 1148.6,729.3 1148.6,718.6 1329,718.6 1184.7,646.5 	"/>
	<polygon fill="#FFFFFF" points="728.6,718.6 788,718.6 788,729.3 860.1,693.2 860.1,652.9 	"/>
	<polygon fill="#FFFFFF" points="860.1,430.1 860.1,383.4 788,347.3 788,358 607.6,358 751.9,430.1 	"/>
	<polygon fill="#FFFFFF" points="1208,358 1148.6,358 1148.6,347.3 1076.5,383.4 1076.5,423.7 	"/>
	<path fill="#FFFFFF" d="M1305.7,646.5l144.3,72.1h19.8c3-8.6,5.8-17.4,8.4-26.2l-91.9-45.9H1305.7z"/>
	<path fill="#FFFFFF" d="M1184.7,430.1h201.6l91-45.5c-2.7-9-5.6-17.9-8.8-26.6H1329L1184.7,430.1z"/>
	<path fill="#FFFFFF" d="M630.9,430.1L486.7,358h-35.2c-2.3,6.4-4.5,12.9-6.5,19.5l105.4,52.7H630.9z"/>
	<path fill="#FFFFFF" d="M751.9,646.5H550.3L444,699.6c2,6.4,4.1,12.7,6.3,19h157.4L751.9,646.5z"/>
	<polygon fill="#FFFFFF" points="751.9,430.1 607.6,358 607.6,358 751.9,430.1 	"/>
	<polygon fill="#FFFFFF" points="607.6,358 486.7,358 630.9,430.1 751.9,430.1 	"/>
	<polygon fill="#FFFFFF" points="1329,718.6 1449.9,718.6 1305.7,646.5 1184.7,646.5 	"/>
	<polygon fill="#FFFFFF" points="1076.5,430.1 1184.7,430.1 1329,358 1208,358 1076.5,423.7 	"/>
	<polygon fill="#FFFFFF" points="1184.7,430.1 1329,358 1329,358 1184.7,430.1 	"/>
	<polygon fill="#FFFFFF" points="860.1,646.5 751.9,646.5 607.6,718.6 728.6,718.6 860.1,652.9 	"/>
	<path fill="#CF142B" d="M968.3,1079h-41.2c1.6,0.1,3.3,0.2,4.9,0.3h36.3V1079z"/>
	<path fill="#CF142B" d="M968.3,1079.3v0.3h13.4c3.8-0.1,7.5-0.3,11.2-0.6h-24.6V1079.3z"/>
	<polygon fill="#CF142B" points="968.3,1079.6 938.3,1079.6 938.3,1079.6 968.3,1079.6 	"/>
	<polygon fill="#CF142B" points="968.3,1079.6 981.7,1079.6 981.7,1079.6 968.3,1079.6 	"/>
	<path fill="#CF142B" d="M968.3,1079.3H932c2.1,0.1,4.2,0.2,6.3,0.3h30V1079.3z"/>
	<path fill="#CF142B" d="M550.3,430.1H431.2c-7.2,35-11.1,71.1-11.2,108.2h346.7L550.3,430.1z"/>
	<path fill="#CF142B" d="M968.3,639.1L968.3,639.1l-108.2,54.1v377.6c21.9,4.1,44.3,6.9,67,8.2h41.2V639.1z"/>
	<path fill="#CF142B" d="M1169.9,538.3H1500c-0.1-37.1-4-73.3-11.2-108.2h-102.5L1169.9,538.3z"/>
	<path fill="#CF142B" d="M1076.5,383.4V12.6c-34.9-7.7-71.1-12-108.2-12.5v437.4L1076.5,383.4z"/>
	<path fill="#CF142B" d="M968.3,437.5L968.3,437.5l0-437.4C965.5,0,962.8,0,960,0c-34.1,0-67.5,3.2-99.9,9.2v374.1L968.3,437.5z"/>
	<path fill="#CF142B" d="M968.3,639.1V1079h24.6c28.5-1.7,56.4-5.6,83.6-11.6V693.2L968.3,639.1z"/>
	<path fill="#CF142B" d="M1500,538.3h-330.1l0,0l216.4,108.2h103.2c6.9-34.4,10.5-70,10.5-106.5C1500,539.4,1500,538.9,1500,538.3z"
		/>
	<path fill="#CF142B" d="M766.7,538.3L766.7,538.3l-346.7,0c0,0.6,0,1.1,0,1.7c0,36.5,3.6,72.1,10.5,106.5h119.8L766.7,538.3z"/>
	<polygon fill="#CF142B" points="1089.3,538.3 1305.7,646.5 1386.3,646.5 1169.9,538.3 1169.9,538.3 1089.3,538.3 	"/>
	<rect x="968.3" y="538.3" fill="#CF142B" width="0" height="0"/>
	<polygon fill="#CF142B" points="968.3,538.3 968.3,538.3 968.3,538.3 	"/>
	<polygon fill="#CF142B" points="1184.7,646.5 1184.7,646.5 968.3,538.3 968.3,538.3 	"/>
	<polygon fill="#CF142B" points="968.3,477.8 1076.5,423.7 1076.5,383.4 968.3,437.5 968.3,477.8 	"/>
	<polygon fill="#CF142B" points="1184.7,430.1 968.3,538.3 1089.3,538.3 1169.9,538.3 1386.3,430.1 	"/>
	<polygon fill="#CF142B" points="968.3,538.3 968.3,538.3 968.3,538.3 751.9,646.5 751.9,646.5 	"/>
	<polygon fill="#CF142B" points="968.3,538.3 968.3,538.3 968.3,538.3 	"/>
	<polygon fill="#CF142B" points="630.9,430.1 550.3,430.1 766.7,538.3 847.3,538.3 	"/>
	<polygon fill="#CF142B" points="968.3,538.3 847.3,538.3 766.7,538.3 766.7,538.3 550.3,646.5 751.9,646.5 968.3,538.3 	"/>
	<polygon fill="#CF142B" points="751.9,430.1 968.3,538.3 968.3,477.8 968.3,437.5 968.3,437.5 860.1,383.4 860.1,430.1 	"/>
	<polygon fill="#CF142B" points="1184.7,646.5 968.3,538.3 968.3,538.3 968.3,598.8 968.3,639.1 1076.5,693.2 1076.5,646.5 	"/>
	<polygon fill="#CF142B" points="860.1,652.9 860.1,693.2 968.3,639.1 968.3,639.1 968.3,598.8 	"/>
	<polygon fill="#CF142B" points="1184.7,430.1 1076.5,430.1 1076.5,423.7 968.3,477.8 968.3,477.8 968.3,538.3 968.3,538.3 	"/>
	<polygon fill="#CF142B" points="968.3,538.3 968.3,538.3 968.3,538.3 	"/>
	<polygon fill="#CF142B" points="860.1,646.5 860.1,652.9 968.3,598.8 968.3,538.3 751.9,646.5 	"/>
	<polygon fill="#CF142B" points="968.3,538.3 751.9,430.1 630.9,430.1 847.3,538.3 	"/>
	<polygon fill="#CF142B" points="1089.3,538.3 968.3,538.3 968.3,538.3 1184.7,646.5 1305.7,646.5 1089.3,538.3 	"/>
	<polygon fill="#CF142B" points="968.3,538.3 968.3,538.3 968.3,538.3 968.3,538.3 968.3,538.3 	"/>
	<polygon fill="#CF142B" points="968.3,538.3 968.3,538.3 968.3,538.3 1184.7,430.1 1184.7,430.1 	"/>
	<rect x="968.3" y="538.3" fill="#CF142B" width="0" height="0"/>
	<polygon fill="#CF142B" points="968.3,538.3 968.3,538.3 968.3,538.3 	"/>
	<polygon fill="#CF142B" points="968.3,538.3 968.3,538.3 968.3,538.3 	"/>
	<polygon fill="#CF142B" points="968.3,538.3 968.3,538.3 751.9,430.1 751.9,430.1 968.3,538.3 968.3,538.3 	"/>
</g>
</svg>
