<?xml version="1.0" encoding="utf-8"?>
<!-- Generator: Adobe Illustrator 19.0.0, SVG Export Plug-In . SVG Version: 6.00 Build 0)  -->
<svg version="1.1" id="Layer_1" xmlns="http://www.w3.org/2000/svg" xmlns:xlink="http://www.w3.org/1999/xlink" x="0px" y="0px"
	 viewBox="0 89.1 612 613.8" style="enable-background:new 0 89.1 612 613.8;" xml:space="preserve">
<style type="text/css">
	.st0{fill:#FFFFFF;}
	.st1{fill:#4A261A;}
</style>
<g>
	<path class="st0" d="M305.8,702.9c169.2,0,306.2-137,306.2-306.2S475,90.5,305.8,90.5S-0.4,227.8-0.4,397
		C-0.4,565.9,136.6,702.9,305.8,702.9L305.8,702.9z"/>
	<path class="st1" d="M305.8,693.9c163.9,0,296.9-133,296.9-296.9s-133-296.9-296.9-296.9S8.9,233.1,8.9,397
		C8.9,561,141.9,693.9,305.8,693.9L305.8,693.9z"/>
	<path class="st0" d="M305.8,687.4c160.5,0,290.7-130.2,290.7-290.7S466.3,106,305.8,106S15.1,236.2,15.1,396.7
		S145.3,687.4,305.8,687.4L305.8,687.4z"/>
	<path class="st1" d="M305.8,683.1c158.1,0,286.1-128,286.1-286.1S463.9,111,305.8,111S19.7,239,19.7,397
		C19.4,555.1,147.7,683.1,305.8,683.1L305.8,683.1z"/>
	<path class="st0" d="M190.5,285.1c-2.5,10.5-9,12.7-20.1,13.3c-15.8,1.2-31.9-5.6-33.8-31c-1.2-18.3,6.5-40,17-51.4
		c9.9-10.5,21.7-18.6,40.6-19.8c15.5-0.9,21.1,5,19.2,19.8c0.6,1.2,3.4,1.2,4,0c1.2-6.2,3.7-15.8,5.9-21.7c-3.7-1.2-13.9-4-27.6-3.1
		c-22,1.5-39.7,9.3-53.9,23.9c-15.5,15.5-20.5,35-19.5,50.5c1.9,26,19.5,40.3,47.7,38.1c8.4-0.6,22.3-5,32.9-9.6
		c0.6-0.6,0.6-1.5,0.6-2.2c-1.5-0.9-2.2-2.5-1.5-4.6l3.7-16.1c3.1-13,3.7-13.6,9.6-15.8l2.8-0.9c1.2-0.9,0.9-3.4,0-4
		c-3.7,0.6-11.2,1.2-18,1.9c-6.8,0.6-12.1,0.6-19.2,0.9c-1.2,0.6-1.2,3.1,0,4l6.2,0.3c9.6,0.6,9.6,2.8,6.8,14.9L190.5,285.1
		L190.5,285.1z M255.9,232.4c-6.2,0.3-13,3.1-20.5,11.5c-9.6,10.5-14.3,26-14.3,35.3c0,13.3,6.8,19.8,16.7,19.2
		c4-0.3,12.4-1.5,21.1-12.1c10.5-12.4,13.9-27.3,13.9-36C272.6,239.3,266.8,231.5,255.9,232.4L255.9,232.4z M255.3,237.1
		c5.3-0.3,6.5,5,6.8,9.6c0.3,8.1-5.6,28.8-11.8,38.4c-4.3,6.8-8.1,8.7-11.5,8.7c-4.3,0.3-6.8-4-6.8-9.3c0-8.1,4.6-26.7,12.7-39.4
		C248.5,239,252.2,237.1,255.3,237.1L255.3,237.1z M312,228.4c-6.2,0.3-13,3.1-20.5,11.5c-9.6,10.5-14.3,26-14.3,35.3
		c0,13.3,6.8,19.8,16.7,19.2c4-0.3,12.4-1.5,21.1-12.1c10.5-12.4,13.9-27.3,13.9-36C328.7,235.2,322.8,227.5,312,228.4L312,228.4z
		 M311.4,233.1c5.3-0.3,6.5,5,6.8,9.6c0.3,8.1-5.6,28.8-11.8,38.4c-4.3,6.8-8.1,8.7-11.5,8.7c-4.3,0.3-6.8-4-6.8-9.3
		c0-8.1,4.6-26.7,12.7-39.4C304.6,234.9,308.3,233.4,311.4,233.1L311.4,233.1z M383,228.1c-1.9-3.1-5.6-4.3-8.1-4.3
		c-7.4,0.6-16.7,5.6-26.3,15.5c-11.5,11.8-18.3,30.4-17.7,41.2c0.3,6.2,4,10.8,9.9,10.2c14.9-0.9,25.4-16.7,34.7-31.6h0.6l-4.3,15.5
		c-1.2,4.6-1.5,7.1-1.2,9c0.3,2.5,2.2,4.6,5.3,4.6c8.1-0.6,21.1-13.9,24.5-22.9c-0.3-1.2-0.9-1.9-2.5-1.9
		c-4.3,6.2-13.3,14.9-15.8,14.9c-1.2,0-1.5-1.5-1.2-3.4c0.9-4.6,6.5-29.8,18.9-72.5c3.7-13,5.6-18.9,7.7-27.9l-0.6-0.9
		c-6.5,0.3-14.9,2.8-18,4c-0.6,0.6-0.6,1.5-0.3,2.2l3.7,2.2c2.2,1.2,1.9,4-0.6,12.7L383,228.1L383,228.1z M374.9,228.7
		c3.7-0.3,6.2,4.3,4.6,10.8c-1.9,8.4-5.6,17.7-16.7,31c-9.9,11.5-17.4,14.9-19.8,15.2c-1.2,0-3.1-1.2-3.1-3.1
		c0-1.9-0.3-4.6,3.7-14.9c4-9.9,13.9-25.4,19.8-31.3C367.5,232.1,371.2,228.7,374.9,228.7L374.9,228.7z M402.2,281.4
		c-0.6,1.9,0,3.1,0.9,4s1.9,1.2,2.5,1.2c10.5-0.6,25.4-15.5,27.3-20.1c0-1.2-0.9-2.5-2.5-2.5c-4.6,6.2-12.4,12.4-15.2,12.4
		c-1.2,0-1.2-1.9-0.6-3.4l15.2-44.6c1.5-4.6,1.5-5.9,0.3-6.8c-0.6-0.6-1.5-1.5-2.5-1.2c-5,0.3-16.4,6.8-24.2,17
		c-0.3,1.2,0.9,2.5,2.2,2.5c7.1-6.8,11.2-9,12.1-9s1.2,1.2,0.6,2.8L402.2,281.4L402.2,281.4z M428.2,188.4
		c-5.9,0.3-7.7,6.8-7.4,10.2c0.3,2.5,1.9,5.6,5.9,5.3c4.6-0.3,7.7-5.3,7.4-9.9C433.8,190.6,431.9,188.4,428.2,188.4L428.2,188.4z
		 M474.4,216.9c-4.3,0.3-10.2,1.9-18,8.7c-15.8,13.9-20.5,33.2-19.8,42.8c0.6,7.4,4.3,15.8,13.6,15.2c6.5-0.3,14.9-3.4,23.6-15.5
		c0.3-1.5-0.9-2.5-2.2-2.5c-6.2,6.2-9.9,9.6-15.5,9.9c-4,0.3-7.7-3.1-8.1-8.1c-0.3-6.2,0.3-11.2,1.2-13.6
		c21.7-7.7,36.3-16.4,35.3-27.9C484.6,221.6,480.6,216.6,474.4,216.9L474.4,216.9z M471.6,221.9c2.8-0.3,3.7,1.9,3.7,3.4
		c0,1.2-0.9,6.2-5.3,10.8c-5.3,5.9-9.9,9-19.8,12.7c1.5-4.6,4.6-11.8,10.2-18.6C465.7,223.8,469.7,222.2,471.6,221.9L471.6,221.9z"
		/>
	<path class="st0" d="M60,441h36.3c15.5,0,33.5-5.3,33.5-30.4c0-12.7-5.9-20.5-17.4-23.2v-0.3c9.6-4,15.2-11.2,15.2-24.5
		c0-18-12.1-26.7-27.9-26.7H60L60,441L60,441z M83,396.4h7.1c7.7,0,17,0.9,17,12.4c0,10.5-8.7,12.1-17,12.1h-6.8v-24.5H83z
		 M83,355.8h6.5c7.7,0,15.2,0.9,15.2,10.5c0,9-7.7,11.2-15.2,11.2H83V355.8L83,355.8z M216.9,336h-22.9v60.4
		c0,13.9-3.1,25.7-14.9,25.7s-14.9-11.8-14.9-25.7V336h-22.9V401c0,28.8,15.2,41.8,37.8,41.8c22.3,0,37.8-13,37.8-41.8L216.9,336
		L216.9,336z M232,441H255v-41.5h5c8.4,0,11.5,4.6,16.1,22.6l5,18.9h23.9l-8.4-28.5c-3.7-13-5-20.8-12.1-23.2V389
		c11.2-3.1,16.4-12.4,16.4-26.3c0-18-12.4-26.3-27.9-26.3H232V441L232,441z M255,355.8h6.2c8.7,0,16.7,1.9,16.7,11.5
		c0,11.8-9.3,12.1-16.7,12.1H255V355.8L255,355.8z M392.3,379.7h-35.6v19.8H370v20.8c-2.2,1.2-5,1.9-8.1,1.9
		c-16.7,0-28.8-12.4-28.8-33.2c0-24.5,15.2-34.1,33.8-34.1c5.6,0,13.9,1.5,21.1,6.8l1.9-22.9c-8.4-4-20.5-4.6-26-4.6
		c-31.6,0-54.5,15.2-54.5,54.9c0,39.7,26.7,53.9,49.6,53.9c7.7,0,18.6-0.3,33.2-5v-58.3H392.3z M408.1,441h62v-19.8h-39v-23.9h35.6
		v-19.8H431v-21.7h37.8V336h-60.7V441L408.1,441z M484,441h22.9v-41.5h5c8.4,0,11.5,4.6,16.1,22.6l5,18.9h23.9l-8.4-28.5
		c-3.7-13-5-20.8-12.1-23.2V389c11.2-3.1,16.4-12.4,16.4-26.3c0-18-12.4-26.3-27.9-26.3H484V441L484,441z M506.9,355.8h6.2
		c8.7,0,16.7,1.9,16.7,11.5c0,11.8-9.3,12.1-16.7,12.1h-6.2V355.8L506.9,355.8z"/>
	<path class="st0" d="M356.9,499.9c0,0-0.3-0.9-0.9-2.2c-0.6-1.5-1.5-3.4-3.1-5.9c-1.5-2.5-3.7-5.3-6.8-8.1c-1.5-1.2-3.1-2.8-5.3-4
		c-1.9-1.2-4-2.5-6.5-3.7c-9.3-4.3-21.7-6.8-34.4-5.6c-0.9,0-1.5,0.3-2.5,0.3s-1.5,0.3-2.5,0.3c-0.9,0.3-1.5,0.3-2.5,0.6
		s-1.5,0.3-2.5,0.6c-3.1,0.9-6.2,1.9-9.3,3.4c-5.9,2.8-11.5,6.5-15.5,11.5c-0.6,0.6-0.9,1.2-1.5,1.9c-0.3,0.6-0.9,1.2-1.2,1.9
		l-1.2,1.9c-0.3,0.6-0.9,1.5-0.9,2.2c-0.6,1.2-0.9,2.5-0.9,3.4c0,0.9,0.3,1.2,0.9,1.9c0.6,0.6,1.5,0.9,3.1,1.5l0.9,0.3l1.2,0.3
		c0.6,0.3,1.5,0.3,2.2,0.3c1.5,0.3,3.4,0.3,5,0.6c1.5,0,3.1,0,4.6,0.3c6.2,0.3,12.7,0,18.9-0.3c3.1,0,6.2-0.3,9-0.3s5.9,0,8.4,0
		c5.3,0,10.2-0.3,14.9,0c2.2,0,4.3,0.3,6.2,0.3c0.9,0,1.9,0.3,2.8,0.3s1.9,0.3,2.5,0.3c3.1,0.6,5.6,1.2,7.1,1.9
		c0.9,0.3,1.2,0.6,1.9,0.9c0.3,0.3,0.6,0.3,0.6,0.3l-0.3,0.6c0,0-0.3,0-0.6,0s-0.9-0.3-1.9-0.3c-1.5-0.3-4-0.6-7.1-0.6
		s-6.8,0.3-11.2,0.6c-2.2,0.3-4.3,0.6-6.8,0.9c-2.5,0.3-5,0.6-7.7,0.9c-5.3,0.6-11.2,1.2-17,1.9c-3.1,0.3-6.2,0.6-9.6,0.6
		c-1.5,0-3.4,0.3-5,0.3c-0.9,0-1.9,0-2.5,0c-0.9,0-1.9,0-2.8,0c-1.9,0-3.7-0.3-5.6-0.3c-0.9,0-1.5-0.3-2.5-0.3l-1.2-0.3h-0.6h-0.3
		l0,0c-0.3,0-0.3,0-0.3,0h-0.3c-1.9-0.3-3.7-0.9-5.6-1.5c-1.9-0.6-4-1.9-5.9-3.7c-0.3-0.3-0.3-0.6-0.6-0.6c-0.3-0.3-0.3-0.6-0.6-0.9
		c-0.3-0.6-0.6-1.2-0.9-1.9c-0.3-0.6-0.3-1.2-0.3-1.9s0-1.2,0-1.9c0.3-2.5,0.9-4,1.9-5.9c0.3-0.9,0.9-1.5,1.2-2.5l0,0c0-0.3,0,0,0,0
		l0,0l0.3-0.3l0.3-0.6l0.6-1.2c0.6-0.6,1.2-1.5,1.5-2.2c0.6-0.6,1.2-1.5,1.9-2.2c5-5.6,11.5-9.6,18.3-12.4c3.4-1.5,6.8-2.5,10.5-3.1
		c0.9-0.3,1.9-0.3,2.8-0.6c0.9,0,1.5-0.3,2.5-0.3s1.9-0.3,2.8-0.3s1.9,0,2.5-0.3c6.8-0.3,13.6,0.3,19.8,1.5
		c6.2,1.2,11.8,3.4,16.4,6.2c2.5,1.2,4.6,2.8,6.5,4c1.9,1.5,3.7,3.1,5.3,4.6c3.1,3.1,5,6.2,6.5,9c1.5,2.8,2.2,5,2.5,6.5
		c0.3,1.5,0.6,2.2,0.6,2.2V499.9L356.9,499.9z"/>
	<path class="st0" d="M244.1,525.9c0,0,0,0,0.3,0h0.3c0,0,0.3,0,0.6-0.3s0.9-0.6,1.5-0.9c0.6-0.3,1.2-0.9,1.9-1.5s1.5-1.2,2.5-2.2
		c0.6-0.3,0.9-0.6,1.9-1.2c0.3-0.3,0.6-0.3,1.2-0.6l0,0l0,0c-0.3,0,0.3,0,0.3,0l0,0h0.3h0.6c0.3,0,0.6-0.3,0.9-0.3
		c0.3,0,0.9,0,1.2,0s0.9,0,1.2,0s0.9,0,1.2,0c0.9,0,1.9,0,2.8,0.3h0.3h0.3l0,0l0,0l0,0h0.6h0.3h0.3l0.6,0.3c1.9,0.6,3.4,1.2,5,1.9
		s3.1,0.9,4.3,1.2c0.6,0,1.2,0,1.9,0c0.3,0,0.6,0,0.9,0l0,0l0,0c0,0,0.3,0-0.3,0l0,0h0.3h0.3l0,0l0.6-0.3c0.3-0.3,0.6-0.3,0.9-0.6
		c0.9-0.6,1.5-0.9,2.5-1.5c1.9-1.2,4.3-2.5,7.4-3.1c0.3,0,0.6,0,1.2,0h0.6l0,0h0.3l0,0h0.3c0.6,0,0.9,0,1.9,0c0.3,0,0.9,0,1.2,0.3
		l0.9,0.3c0.6,0.3,1.2,0.3,1.9,0.6c2.5,0.9,4.3,2.5,6.2,3.7c1.9,1.2,3.1,2.2,4.6,2.5c0.3,0,0.3,0,0.6,0h0.3l0,0l0,0c0,0-0.6,0-0.3,0
		l0,0h0.9c0,0,0,0,0.3,0s1.2-0.3,2.2-0.9c1.5-0.9,3.4-2.2,5.9-3.4c1.2-0.6,2.5-0.9,4-0.9c0.3,0,0.6,0,1.2,0h0.6h0.3l0,0
		c0.3,0,0,0,0.3,0l0,0c0.3,0,0.6,0,0.9,0.3c0.3,0,0.6,0.3,0.9,0.3c2.5,0.9,4,2.2,5.9,3.1c1.5,0.9,3.4,1.9,4.6,1.9l0,0l0,0
		c0,0,0.3,0-0.3,0h0.3h0.3c0,0,0,0,0.3,0s0.6-0.3,0.9-0.3c0.6-0.3,1.5-0.6,2.5-1.2c0.9-0.3,1.9-0.9,2.8-1.2s1.9-0.6,3.4-0.6h0.6
		c0.3,0,0,0,0.3,0l0,0l0,0h0.3h0.6c0.6,0,1.2,0.3,1.5,0.6c0.9,0.3,1.5,0.6,2.5,1.2c0.6,0.3,1.5,0.6,2.2,0.9c0.3,0.3,0.6,0.3,0.9,0.3
		c0,0,0.3,0,0.3,0.3l0.6,0.3c0.6,0.3,1.2,0.3,1.9,0.6c0.6,0,1.2,0.3,1.9,0.3c2.5,0.3,4.3-0.6,5.9-1.5c1.2-1.2,2.2-2.2,2.8-3.1
		c0.6-0.9,0.9-1.2,0.9-1.2l0.6,0.3c0,0-0.3,0.3-0.9,1.2c-0.6,0.9-1.2,2.2-2.8,3.4c-0.6,0.6-1.5,1.5-2.8,1.9c-1.2,0.6-2.5,0.6-4,0.6
		c-0.6,0-1.5,0-2.2,0s-1.5-0.3-2.2-0.3H356c-0.3,0-0.3,0-0.6-0.3c-0.3,0-0.9-0.3-1.2-0.3c-0.9-0.3-1.5-0.6-2.2-0.9
		c-0.6-0.3-1.5-0.6-2.2-0.9c-0.3,0-0.6,0-0.9-0.3h-0.6h-0.3l0,0l0,0c0,0-0.3,0,0,0h-0.3c-0.9,0-2.5,0.9-4,1.9
		c-0.9,0.6-1.5,0.9-2.5,1.5c-0.6,0.3-0.9,0.6-1.5,0.6c-0.3,0-0.9,0.3-1.2,0.3H338h-0.3c-0.3,0,0,0-0.3,0l0,0l0,0
		c-2.8,0-4.6-1.2-6.8-1.9c-1.9-0.9-3.7-1.9-5.3-2.2H325c-0.3,0-0.6,0-0.6,0l0,0c0,0-0.3,0,0,0l0,0l0,0h-0.3c0,0-0.3,0-0.6,0
		c-0.6,0-1.2,0.3-1.9,0.6c-1.5,0.6-3.1,2.2-5.3,3.4c-1.2,0.6-2.2,1.2-4,1.9c-0.3,0-0.9,0.3-1.5,0.3h-0.9l0,0c0.3,0-0.3,0-0.3,0l0,0
		h-0.3h-0.6c-0.3,0-0.6,0-1.2,0c-1.5-0.3-2.8-0.6-4-1.2c-1.2-0.6-2.2-1.2-3.1-1.5c-1.9-1.2-3.7-1.9-5.3-2.5c-0.3,0-0.6-0.3-1.2-0.3
		h-0.6h-0.3c0,0-0.9,0-1.2,0h-0.3l0,0c0.6,0,0,0,0.3,0l0,0h-0.3h-0.3c-1.2,0.3-2.5,0.9-4,1.9c-0.9,0.6-1.9,1.2-2.5,1.5
		c-0.6,0.3-0.9,0.6-1.5,0.9c-0.6,0.3-1.2,0.6-1.9,0.9c-2.5,0.9-5.6,0.9-8.1,0.3c-2.5-0.6-4.3-1.5-5.9-2.5c-1.5-0.9-3.1-1.9-4.3-2.5
		l-0.3-0.3h-0.3h-0.3l-0.6-0.3l0,0l0,0l0,0l0,0h-0.3c-0.6-0.3-1.2-0.3-1.9-0.6c-0.3,0-0.6,0-0.9-0.3c-0.3,0-0.6,0-0.6,0
		c-0.3,0-0.6,0-0.9,0c-0.3,0-0.6,0-0.9,0H255h-0.3l0,0h0.3l0,0l0,0c-0.3,0-0.3,0-0.6,0s-0.9,0.3-1.5,0.3c-0.9,0.3-1.9,0.9-2.8,1.2
		c-1.9,0.9-3.4,1.2-4.6,1.5c-1.2,0-1.9-0.3-1.9,0L244.1,525.9L244.1,525.9z"/>
	<path class="st0" d="M257.1,539.9c0,0,0.9,0,2.5-0.3s4-0.3,7.1-0.6c3.1-0.3,6.8-0.6,10.8-0.9c2.2-0.3,4.3-0.3,6.8-0.3
		c2.5,0,5-0.3,7.4-0.6s5.3-0.3,8.1-0.6c2.8-0.3,5.6-0.3,8.7-0.6c1.5,0,3.1-0.3,4.3-0.3c0.6,0,1.5,0,2.2,0c0.3,0,0.6,0,0.9,0h1.2
		c3.1-0.3,6.2-0.6,9.6-0.6c6.5-0.3,13.3-0.6,20.1-0.3c1.9,0,3.4,0.3,5.3,0.3c1.9,0.3,3.7,0.3,5.6,0.9c0.9,0.3,2.2,0.6,3.4,1.2
		c0.6,0.3,1.5,0.9,2.2,2.2c0.3,0.3,0.3,0.6,0.3,0.9c0.3,1.2,0,0.3,0,0.6l0,0l0,0v0.3v0.3v0.3c0,0.3,0,0.6,0,0.9v0.3v0.3l-0.3,0.9
		c-0.3,0.6-0.6,0.9-0.9,1.5c-0.6,0.9-1.2,1.5-1.9,2.5c-1.2,1.5-2.5,2.8-3.7,3.7c-0.6,0.6-1.2,1.2-2.2,1.9c-0.6,0.6-1.2,1.2-2.5,1.9
		l0,0c0,0,0.3,0-0.3,0.3l0,0h-0.3l-0.6,0.3c-0.3,0.3-0.6,0.3-1.2,0.6c-0.9,0.3-2.2,0.6-3.1,0.9c-1.9,0.3-3.7,0.6-5.6,0.9
		c-3.7,0.3-6.8,0.3-10.2,0.3c-3.4,0-6.5,0-9.9,0c-6.5,0-12.7,0-18.6,0c-5.9,0-11.5-0.3-16.7-0.3c-5.3,0-9.9-0.3-14.3-0.6
		c-0.9,0-2.2,0-3.1-0.3c-0.6,0-0.9,0-1.5-0.3c-0.6,0-0.9-0.3-1.5-0.3c-1.9-0.3-3.4-0.9-5-1.5c-2.8-1.2-4.6-3.1-5.3-4.6
		c-0.3-0.3-0.3-0.6-0.3-0.9c0-0.3,0-0.6,0-0.6c0-0.3,0-0.6,0-0.6h0.9c0,0,0,0.9,0.6,1.9c0.6,1.2,2.5,2.8,5.3,3.7
		c1.2,0.6,2.8,0.9,4.6,1.2c0.3,0,0.9,0,1.2,0.3c0.3,0,0.9,0,1.2,0c0.9,0,1.9,0,3.1,0c4.3,0,9,0,13.9-0.3c5.3-0.3,10.8-0.3,16.7-0.6
		c5.9-0.3,12.1-0.6,18.6-0.9c3.1-0.3,6.5-0.3,9.9-0.6c3.4-0.3,6.8-0.3,9.9-0.6c1.5-0.3,3.1-0.3,4.6-0.9c0.6-0.3,1.2-0.3,1.9-0.6
		c0.3,0,0.6-0.3,1.2-0.6l0.6-0.3h0.3l0,0c-0.3,0.3,0,0-0.3,0l0,0c0.3-0.3,0.9-0.9,1.5-1.2c0.6-0.6,1.2-0.9,1.5-1.5
		c1.2-0.9,2.2-2.2,3.1-3.4c0.3-0.6,0.9-1.2,1.2-1.5c0-0.3,0.3-0.6,0.3-0.6v-0.3l0,0l0,0c0,0,0,0,0,0.3l0,0l0,0v-0.3l0,0l0,0
		c0,0.3,0-0.6,0,0.3c0,0.3,0,0.3,0.3,0.3c0.3,0.6,0.3,0.6,0.3,0.6s-0.9-0.3-1.5-0.3c-1.2-0.3-2.8-0.3-4.6-0.3c-1.5,0-3.1,0-5,0
		c-6.5,0.3-13,0.6-19.5,1.2c-3.1,0.3-6.2,0.3-9.6,0.6H316c-0.3,0-0.9,0-1.2,0c-0.6,0-1.5,0-2.2,0c-1.5,0-3.1,0-4.6,0
		c-3.1,0-5.9,0-8.7,0c-2.8,0-5.6,0-8.1-0.3c-5.3,0-9.9-0.3-14.3-0.6c-4.3-0.3-7.7-0.6-10.8-0.9c-3.1-0.3-5.3-0.6-7.1-0.6
		c-1.5-0.3-2.5-0.3-2.5-0.3L257.1,539.9L257.1,539.9z"/>
	<path class="st0" d="M81.7,481.9L81.7,481.9c0,0-2.5,0.3-2.5,3.4c0,2.8,2.5,3.4,2.5,3.4l0,0h140.7l0,0c0,0,2.2-0.6,2.2-3.4
		c0-2.5-2.2-3.4-2.2-3.4l0,0H81.7L81.7,481.9z"/>
	<path class="st0" d="M389.5,481.9L389.5,481.9c0,0-2.5,0.3-2.5,3.4c0,2.8,2.5,3.4,2.5,3.4l0,0h140.7l0,0c0,0,2.2-0.6,2.2-3.4
		c0-2.5-2.2-3.4-2.2-3.4l0,0H389.5L389.5,481.9z"/>
	<path class="st0" d="M146.5,532.4c2.2-1.5,4-3.1,5-3.7c0.3-0.3,0.3-0.6,0-0.9c-0.3-0.3-2.2-1.2-4.3-2.8c-1.9-1.2-3.7-2.8-5.3-4.3
		c-0.6,0-1.5,0.6-1.2,1.2l1.2,2.2c1.2,2.2,0.6,2.8-2.2,5l-13.3,10.5c-3.4,2.5-4,2.8-5.6,0.6l-1.5-1.5c-0.6-0.3-1.5,0.6-1.2,1.2
		c1.2,1.5,3.1,4,5.3,6.5c1.9,2.5,4,5,5,6.5c0.3,0.3,1.5-0.6,1.5-0.9l-1.2-1.9c-1.5-2.2-1.2-2.8,2.2-5.3L146.5,532.4L146.5,532.4z
		 M164.2,542.1c-5.9-6.2-14.9-2.2-20.8,3.4c-5.9,5.9-9.6,14.9-3.7,20.8c5.9,6.2,14.9,2.5,20.8-3.4
		C166.3,557.2,170.1,548.3,164.2,542.1L164.2,542.1z M148.7,551c3.4-3.4,10.8-10.2,13.6-7.1c2.8,2.8-4,10.2-7.4,13.6
		c-3.4,3.4-10.8,10.2-13.6,7.1C138.4,561.9,145.3,554.4,148.7,551L148.7,551z M183.1,559.4c-6.8-5.3-15.2-0.3-20.1,5.9
		c-5.3,6.5-7.7,15.8-1.2,21.1c6.8,5.3,14.9,0.6,20.1-5.9C187.1,574,189.9,564.7,183.1,559.4L183.1,559.4z M168.8,569.9
		c2.8-3.7,9.6-11.5,12.7-9c3.1,2.5-2.8,10.8-5.6,14.3c-2.8,3.7-9.6,11.5-12.7,9C160.1,582,166,573.7,168.8,569.9L168.8,569.9z
		 M206,614.3c5.6,3.1,10.2-1.2,12.4-5c2.2-3.7,2.8-9.9-2.5-13c-5.6-3.1-10.2,1.2-12.4,5C201.4,604.7,200.4,611.2,206,614.3
		L206,614.3z M207.9,603.7c1.5-2.5,4.3-6.8,6.8-5.6c2.5,1.2,0.3,6.2-1.2,8.7c-1.2,2.5-4,7.1-6.8,5.6
		C204.5,610.9,206.6,606.2,207.9,603.7L207.9,603.7z M191.4,590.4c5.6,3.1,10.2-1.2,12.4-5c2.2-3.7,2.8-9.9-2.5-13
		c-5.6-3.1-10.2,1.2-12.4,5C186.8,581.1,185.9,587.3,191.4,590.4L191.4,590.4z M193.3,579.9c1.5-2.5,4.3-6.8,6.8-5.6
		c2.5,1.2,0.3,6.2-1.2,8.7c-1.2,2.5-4,7.1-6.8,5.6C189.9,587.3,192.1,582.3,193.3,579.9L193.3,579.9z M187.1,605.6
		c11.2-7.1,22.6-14.6,34.1-21.7c0.3-0.9-0.6-1.9-1.5-2.2c-11.2,7.1-22.6,14.6-34.1,21.7C185.2,604.3,185.9,605.3,187.1,605.6
		L187.1,605.6z M242.6,627.6c6.2,1.9,12.7,0,14.9-7.4c2.2-7.1-2.2-12.4-8.1-13.9c-5.9-1.9-12.7,0.6-14.9,7.7
		C232.3,620.8,236.7,626,242.6,627.6L242.6,627.6z M248.2,608.4c2.8,0.9,3.1,5.6,1.5,10.5c-1.2,4.6-3.1,7.4-6.2,6.8
		c-2.8-0.9-3.4-5.3-1.9-10.5C243.5,609.3,246,607.8,248.2,608.4L248.2,608.4z M261.8,625.4c-0.6,3.7-0.9,4-2.5,4h-0.9
		c-0.3,0.3-0.6,1.5-0.3,1.9c1.9,0.3,4,0.6,6.2,0.9c2.5,0.3,4.6,0.9,7.1,1.2c0.6-0.3,0.6-1.5,0.3-1.9l-1.5-0.3
		c-1.5-0.3-1.9-0.9-1.2-4.6l1.2-8.1c0.3-1.9,0.6-3.1,1.5-3.1c0.3,0,0.6,0.3,1.9,1.2c0.6,0.6,1.2,1.2,1.9,1.2c1.5,0.3,3.4-0.3,4-2.8
		c0.3-1.9-0.9-3.4-2.5-3.4c-2.2-0.3-4,1.2-5.6,1.9c-0.3-0.3-0.6-0.3-0.3-0.6c0-0.6,0.3-1.2,0.6-2.2c0-0.3-0.3-0.6-0.9-0.6
		c-1.9,0.9-5.6,1.5-8.1,1.9c-0.3,0.3-0.6,1.2-0.3,1.5l0.6,0.6c0.9,0.9,0.9,1.5,0.3,3.4L261.8,625.4L261.8,625.4z M298.1,615.5
		c-1.9-1.2-4.6-2.2-7.7-2.5c-6.8-0.3-10.5,3.4-10.8,7.7c-0.3,3.1,1.5,5.9,4,7.1c0.3,0.6,0,0.9-0.6,1.2c-0.3,0.3-1.9,1.5-3.4,2.2
		c-0.3,0.3-0.3,0.6-0.3,0.9c0,1.9,1.2,3.7,3.1,4.3c0.3,0,0.6,0.3,0,0.6s-1.5,0.9-2.8,1.5c-0.9,0.6-1.9,1.2-1.9,2.5
		c-0.3,3.4,2.2,6.8,9.9,7.4c3.1,0.3,6.5-0.3,9.3-1.9c2.8-1.5,5-4.3,5.3-7.7c0.3-5.3-3.7-6.5-7.7-6.8c-2.5-0.3-4.6-0.3-6.5-0.3
		c-1.5,0-2.8-0.9-2.5-2.2c0-0.6,0.3-0.9,0.9-1.2c0.6,0,1.2,0.3,2.2,0.3c8.4,0.6,11.2-4.3,11.5-8.7c0-0.9,0-1.2,0-1.9l4,0.3
		c0.6-0.3,0.9-1.2,0.9-2.2c0-0.6,0-0.9-0.3-1.2L298.1,615.5L298.1,615.5z M286.6,620.5c0.3-3.7,1.9-5,3.4-5c1.9,0,3.4,2.2,3.1,6.5
		c-0.3,3.7-1.5,5.3-3.4,5.3C287.8,627,286.3,624.5,286.6,620.5L286.6,620.5z M291.5,638.1c2.8,0.3,5,1.5,5,4.6
		c-0.3,2.5-2.5,4-5.9,3.7c-4-0.3-6.8-2.8-6.5-6.2c0-0.6,0.3-1.2,0.9-1.9c0.6-0.3,1.5-0.6,3.1-0.6L291.5,638.1L291.5,638.1z
		 M323.8,620.8c0-5.6-2.5-7.4-7.1-7.4c-3.7,0-7.1,2.2-8.7,3.4c-1.2,0.9-2.5,2.8-2.5,4c0,0.6,0.3,1.2,1.2,1.2s3.1-0.6,3.7-1.2
		c0.3-0.3,0.6-0.9,0.9-1.9c0.3-2.2,1.2-3.1,2.5-3.1c2.2,0,3.1,2.5,3.1,4.3c0,0.6,0,1.2,0,1.9c0,0.3-0.3,0.9-1.2,1.2
		c-1.5,0.6-2.8,0.9-5,1.5c-3.7,1.2-5.3,3.1-5.3,5.6c0,3.7,3.1,5.6,6.2,5.3c1.9,0,3.4-1.2,4.3-1.9c0.6-0.3,0.9-0.6,0.9-0.6
		c0.3,0,0.6,0,0.9,0.3c1.5,1.2,2.8,1.9,4.3,1.5c3.1,0,5.3-2.2,5.9-3.1c0-0.6-0.3-1.2-0.6-1.2c-0.9,0.6-1.2,0.6-1.9,0.6
		c-0.9,0-2.5-0.9-2.5-4.3L323.8,620.8L323.8,620.8z M317.3,630.1c0,1.5-0.3,2.5-1.9,2.8c-1.5,0-2.8-1.2-2.8-3.1
		c0-2.5,1.9-3.4,4.3-3.7c0.3,0,0.3,0,0.3,0.9V630.1L317.3,630.1z M333.7,627.9c0.6,3.7,0.3,4-1.2,4.6l-0.9,0.3
		c-0.3,0.3-0.3,1.5,0.3,1.9c1.9-0.3,4-0.9,6.2-1.2c2.5-0.3,4-0.6,5.9-0.9c0.3-0.3,0.3-1.5-0.3-1.9h-0.9c-1.2,0-1.5-0.3-2.2-3.1
		l-1.5-9.3c0-0.9,0-1.5,0-1.9c0.3-0.6,1.2-1.5,2.8-1.9c2.5-0.3,4,0.9,4.3,3.1l1.5,8.7c0.3,2.8,0.3,3.4-0.9,3.7l-0.9,0.3
		c-0.3,0.3-0.3,1.5,0.3,1.9c1.5-0.3,3.4-0.6,5.6-0.9c2.5-0.3,4.6-0.6,6.2-0.9c0.3-0.3,0.3-1.5-0.3-1.9h-0.9c-1.9,0-2.2-0.3-2.8-4
		l-1.5-9c-0.6-3.7-3.1-6.2-7.4-5.6c-2.5,0.3-4.6,2.2-5.6,3.1c-0.3,0.3-0.6,0.6-0.9,0.6c-0.3,0-0.3,0-0.3-0.3s0-1.5-0.3-2.5
		c-0.3-0.3-0.6-0.3-0.9-0.3c-1.2,1.2-5,3.1-7.1,4.3c-0.3,0.3-0.3,1.2,0.3,1.5l0.9,0.3c1.2,0.3,1.2,1.2,1.5,3.1L333.7,627.9
		L333.7,627.9z M367.2,610.9c-0.6-2.2-1.2-4.6-1.5-6.2c-0.3-0.3-0.6-0.3-0.9-0.3c-1.2,1.2-4.6,3.7-6.8,5c-0.3,0.3,0,1.2,0.3,1.5
		l0.9,0.3c1.2,0.3,1.2,0.9,1.9,3.1l2.2,7.7c0.9,3.7,0.9,4-0.9,4.6l-0.9,0.3c-0.3,0.3,0,1.5,0.6,1.9c1.5-0.6,3.7-1.2,6.2-1.9
		s4.3-1.2,6.2-1.5c0.3-0.3,0-1.5-0.3-1.9h-0.9c-1.9,0.3-2.2,0-3.1-3.7L367.2,610.9L367.2,610.9z M359.4,594.4
		c-2.2,0.6-3.4,2.5-2.8,4.6c0.6,2.2,2.2,3.4,4.6,2.8c1.9-0.6,3.4-2.2,2.8-4.6C363.4,595,361.6,593.8,359.4,594.4L359.4,594.4z
		 M381.7,599.7c-6.5,2.5-10.8,8.7-8.1,15.8c2.2,5.9,8.1,8.4,14.3,6.2c4.6-1.9,6.5-5.6,6.8-8.7c-0.3-0.9-1.2-0.9-1.5-0.6
		c-0.3,2.2-1.5,3.4-3.4,4c-4.6,1.5-8.7-1.2-9.9-5.3c-1.2-3.4-0.9-7.7,2.2-9c1.9-0.6,4.3,0.3,6.5,1.9c0,0,0.6,0,0.9,0
		c0.6-0.3,0.9-1.9,0.3-3.4c-0.6-1.2-1.2-1.9-1.9-2.2C385.8,598.5,383.3,599.1,381.7,599.7L381.7,599.7z M403.7,580.8
		c-1.5-2.8-2.8-5-3.7-6.8c-0.3,0-0.6,0-0.9,0c-1.9,2.5-3.7,5-5.6,6.5c-0.3,0.3,0.3,1.2,0.9,1.2h0.9c1.2,0,1.5,0.6,2.5,2.5l12.1,20.5
		c1.2,2.5,2.2,4,2.5,4.6c0.3,0,0.9,0,1.2-0.3c0-0.6,0.6-1.2,1.2-1.5c0.3-0.3,0.9-0.3,1.5-0.3c0.9,0,3.4-0.9,5.3-1.9
		c6.5-3.7,9-10.2,5.3-16.7c-3.1-5.3-8.7-7.1-13.9-4c-1.9,1.2-3.4,2.8-4,4c-0.3,0-0.6,0-1.2-0.9L403.7,580.8L403.7,580.8z
		 M410.9,592.9c-0.6-1.2-0.9-1.9-0.9-2.5c0.3-0.6,0.6-0.9,1.5-1.5c3.1-1.9,7.1,0,9.9,4.6c2.2,3.7,3.1,7.4,0,9.3
		c-1.2,0.6-2.5,0.6-3.7,0c-1.2-0.6-2.2-1.9-2.8-2.8L410.9,592.9L410.9,592.9z M443.1,574.9c1.2-0.9,0.9-1.9,0.6-2.5
		c-2.5-3.1-6.8-4.3-11.2-0.9c-5.3,4-5.9,10.8-1.9,16.1c3.4,4.6,9.6,6.2,15.2,1.9c2.5-1.9,4.6-5.6,3.7-10.2c-0.6-0.6-1.5-0.6-1.9,0
		c0.3,2.8-1.2,4.3-2.2,5.3c-4,3.1-8.4,1.5-10.5-1.9c-0.6-0.6-0.6-0.9,0.6-1.5L443.1,574.9L443.1,574.9z M434.7,578.3
		c-1.2,0.9-1.9,1.5-2.5,0.9c-0.9-1.2-0.6-4,0.9-5.6c1.5-0.9,2.8-0.6,4,0.6c0.3,0.3,0.6,0.9,0.3,1.2c-0.3,0.6-0.9,1.2-1.5,1.5
		L434.7,578.3L434.7,578.3z M459.8,559.7c1.2-1.2,0.9-1.9,0.3-2.5c-2.8-3.1-7.4-3.7-11.5,0c-5,4.3-5,11.5-0.3,16.4
		c4,4.3,10.2,5.3,15.2,0.6c2.5-2.2,4-5.9,2.8-10.5c-0.6-0.6-1.5-0.3-1.9,0c0.6,2.8-0.6,4.3-1.9,5.3c-3.7,3.4-8.1,2.2-10.8-0.6
		c-0.6-0.6-0.6-0.6,0.3-1.5L459.8,559.7L459.8,559.7z M452.1,564.1c-1.2,1.2-1.9,1.5-2.5,0.9c-1.2-1.2-1.2-4,0.6-5.6
		c1.2-1.2,2.8-0.9,4,0.3c0.3,0.3,0.6,0.9,0.6,1.2c-0.3,0.6-0.6,1.2-1.2,1.9L452.1,564.1L452.1,564.1z M469.4,540.8
		c0-0.6-0.3-1.2-0.9-1.9c-0.3-0.3-0.6-0.6-0.9-0.3l-3.4,3.7c-0.9,0.9-0.9,0.9-1.9,0l-4.3-4c-3.7-3.4-4.3-5-3.4-5.9
		c0.3-0.6,1.5-0.6,5-0.3c0.6,0,1.2,0,2.2-0.9c1.2-1.2,1.2-3.1,0-4c-2.2-1.9-5.3-0.6-7.4,1.5c-4,4.3-3.4,8.7-1.9,12.1
		c1.2,2.5,3.7,5.3,5.6,6.8c0.6,0.3,0.3,0.9,0.3,1.9l-0.6,2.5c0,0.3,0.9,0.9,1.2,0.9l1.2-1.5c0.9-0.9,0.9-0.9,1.9,0l7.7,7.1
		c2.8,2.5,3.1,3.1,1.9,4.6l-0.6,0.6c0,0.6,0.9,1.2,1.2,1.2c0.9-1.2,2.5-3.1,4-4.6c1.5-1.9,3.1-3.4,5-5.3c0-0.6-0.6-1.2-1.2-1.2
		l-1.2,1.2c-1.2,1.2-1.9,0.9-4.6-1.5l-7.7-7.1c-0.9-0.9-0.9-0.9-0.3-1.9L469.4,540.8L469.4,540.8z"/>
</g>
</svg>
