<?xml version="1.0" encoding="utf-8"?>
<!-- Generator: Adobe Illustrator 19.0.0, SVG Export Plug-In . SVG Version: 6.00 Build 0)  -->
<svg version="1.1" id="Layer_1" xmlns="http://www.w3.org/2000/svg" xmlns:xlink="http://www.w3.org/1999/xlink" x="0px" y="0px"
	 viewBox="0 0 170 170" style="enable-background:new 0 0 170 170;" xml:space="preserve">
<style type="text/css">
	.st0{fill:#442B20;}
	.st1{fill:#452C20;}
	.st2{fill:#FFFFFF;}
</style>
<path id="XMLID_25_" class="st0" d="M135.7,50.7c0-29.2-24.7-52.6-54.3-50.6C57.4,1.8,37.5,20.5,34.6,44.5
	c-1.1,8.8,0.2,17.2,3.1,24.7h0l34.2,91.7c4.5,12.1,21.7,12.1,26.2,0l34.2-91.7h0C134.5,63.5,135.7,57.3,135.7,50.7z M87.2,71.1
	c-13.9,1.4-25.5-10.2-24.1-24.1c1-10.3,9.3-18.6,19.6-19.6c13.9-1.4,25.5,10.2,24.1,24.1C105.9,61.7,97.5,70,87.2,71.1z"/>
<ellipse id="XMLID_30_" class="st1" cx="85" cy="442" rx="68.8" ry="70.2"/>
<path id="XMLID_88_" class="st2" d="M84.4,442.2L84.4,442.2c-3.8,0-6.9-3.1-6.9-6.9v-41.2c0-3.8,3.1-6.9,6.9-6.9h0
	c3.8,0,6.9,3.1,6.9,6.9v41.2C91.3,439.1,88.2,442.2,84.4,442.2z"/>
<path id="XMLID_90_" class="st2" d="M96.2,452.4L96.2,452.4c2.7-2.7,7-2.7,9.7,0l15.8,16.1c2.7,2.7,2.7,7.2,0,9.9h0
	c-2.7,2.7-7,2.7-9.7,0l-15.8-16.1C93.5,459.6,93.5,455.1,96.2,452.4z"/>
<path id="XMLID_228_" class="st0" d="M44.7,801c3.7-15.6,11.6-30.4,23.7-42.6s27-20.1,42.6-23.7l33.6-33.6
	c-35.2-3.8-71.8,7.7-98.8,34.7s-38.6,63.6-34.7,98.8L44.7,801z"/>
<path id="XMLID_89_" class="st0" d="M133.6,757.2L111,734.6l33.6-33.6l22.6,22.6c4.8,4.8,4.8,12.7,0,17.5l-16.1,16.1
	C146.3,762,138.4,762,133.6,757.2z"/>
<path id="XMLID_293_" class="st0" d="M33.6,857.2l-22.6-22.6L44.7,801l22.6,22.6c4.8,4.8,4.8,12.7,0,17.5l-16.1,16.1
	C46.3,862,38.5,862,33.6,857.2z"/>
</svg>
